<svg width="230" height="44" viewBox="0 0 230 44" fill="none" xmlns="http://www.w3.org/2000/svg">
<rect x="1.5" y="0.5" width="228" height="43" stroke="black"/>
<path d="M0.684 39.064H1.404V32.536H0.684V31.6H4.08C4.48 31.6 4.832 31.656 5.136 31.768C5.448 31.88 5.708 32.032 5.916 32.224C6.132 32.416 6.292 32.648 6.396 32.92C6.508 33.184 6.564 33.472 6.564 33.784V33.928C6.564 34.16 6.528 34.372 6.456 34.564C6.384 34.756 6.284 34.928 6.156 35.08C6.028 35.232 5.876 35.364 5.7 35.476C5.532 35.58 5.348 35.66 5.148 35.716V35.86C5.548 35.972 5.884 36.188 6.156 36.508C6.428 36.82 6.564 37.204 6.564 37.66V37.804C6.564 38.116 6.508 38.408 6.396 38.68C6.292 38.944 6.132 39.176 5.916 39.376C5.708 39.568 5.448 39.72 5.136 39.832C4.832 39.944 4.48 40 4.08 40H0.684V39.064ZM2.412 39.064H4.008C4.48 39.064 4.864 38.948 5.16 38.716C5.456 38.476 5.604 38.148 5.604 37.732V37.66C5.604 37.228 5.464 36.888 5.184 36.64C4.904 36.384 4.524 36.256 4.044 36.256H2.412V39.064ZM2.412 35.32H4.044C4.524 35.32 4.904 35.196 5.184 34.948C5.464 34.7 5.604 34.36 5.604 33.928V33.856C5.604 33.448 5.456 33.128 5.16 32.896C4.864 32.656 4.48 32.536 4.008 32.536H2.412V35.32ZM14.0077 37.096C14.0077 37.592 13.9237 38.032 13.7557 38.416C13.5957 38.792 13.3797 39.112 13.1077 39.376C12.8357 39.632 12.5157 39.828 12.1477 39.964C11.7877 40.1 11.4117 40.168 11.0197 40.168C10.6197 40.168 10.2397 40.1 9.87966 39.964C9.51966 39.828 9.20366 39.632 8.93166 39.376C8.65966 39.112 8.43966 38.792 8.27166 38.416C8.11166 38.032 8.03166 37.592 8.03166 37.096V36.952C8.03166 36.464 8.11166 36.032 8.27166 35.656C8.43966 35.272 8.65966 34.948 8.93166 34.684C9.21166 34.42 9.53166 34.22 9.89166 34.084C10.2517 33.948 10.6277 33.88 11.0197 33.88C11.4117 33.88 11.7877 33.948 12.1477 34.084C12.5077 34.22 12.8237 34.42 13.0957 34.684C13.3757 34.948 13.5957 35.272 13.7557 35.656C13.9237 36.032 14.0077 36.464 14.0077 36.952V37.096ZM11.0197 39.28C11.3077 39.28 11.5717 39.232 11.8117 39.136C12.0597 39.032 12.2757 38.884 12.4597 38.692C12.6437 38.5 12.7877 38.272 12.8917 38.008C12.9957 37.736 13.0477 37.432 13.0477 37.096V36.952C13.0477 36.632 12.9957 36.34 12.8917 36.076C12.7877 35.804 12.6437 35.572 12.4597 35.38C12.2757 35.188 12.0597 35.04 11.8117 34.936C11.5637 34.824 11.2997 34.768 11.0197 34.768C10.7397 34.768 10.4757 34.824 10.2277 34.936C9.97966 35.04 9.76366 35.188 9.57966 35.38C9.39566 35.572 9.25166 35.804 9.14766 36.076C9.04366 36.34 8.99166 36.632 8.99166 36.952V37.096C8.99166 37.432 9.04366 37.736 9.14766 38.008C9.25166 38.272 9.39566 38.5 9.57966 38.692C9.76366 38.884 9.97566 39.032 10.2157 39.136C10.4637 39.232 10.7317 39.28 11.0197 39.28ZM21.3553 37.096C21.3553 37.592 21.2713 38.032 21.1033 38.416C20.9433 38.792 20.7273 39.112 20.4553 39.376C20.1833 39.632 19.8633 39.828 19.4953 39.964C19.1353 40.1 18.7593 40.168 18.3673 40.168C17.9673 40.168 17.5873 40.1 17.2273 39.964C16.8673 39.828 16.5513 39.632 16.2793 39.376C16.0073 39.112 15.7873 38.792 15.6193 38.416C15.4593 38.032 15.3793 37.592 15.3793 37.096V36.952C15.3793 36.464 15.4593 36.032 15.6193 35.656C15.7873 35.272 16.0073 34.948 16.2793 34.684C16.5593 34.42 16.8793 34.22 17.2393 34.084C17.5993 33.948 17.9753 33.88 18.3673 33.88C18.7593 33.88 19.1353 33.948 19.4953 34.084C19.8553 34.22 20.1713 34.42 20.4433 34.684C20.7233 34.948 20.9433 35.272 21.1033 35.656C21.2713 36.032 21.3553 36.464 21.3553 36.952V37.096ZM18.3673 39.28C18.6553 39.28 18.9193 39.232 19.1593 39.136C19.4073 39.032 19.6233 38.884 19.8073 38.692C19.9913 38.5 20.1353 38.272 20.2393 38.008C20.3433 37.736 20.3953 37.432 20.3953 37.096V36.952C20.3953 36.632 20.3433 36.34 20.2393 36.076C20.1353 35.804 19.9913 35.572 19.8073 35.38C19.6233 35.188 19.4073 35.04 19.1593 34.936C18.9113 34.824 18.6473 34.768 18.3673 34.768C18.0873 34.768 17.8233 34.824 17.5753 34.936C17.3273 35.04 17.1113 35.188 16.9273 35.38C16.7433 35.572 16.5993 35.804 16.4953 36.076C16.3913 36.34 16.3393 36.632 16.3393 36.952V37.096C16.3393 37.432 16.3913 37.736 16.4953 38.008C16.5993 38.272 16.7433 38.5 16.9273 38.692C17.1113 38.884 17.3233 39.032 17.5633 39.136C17.8113 39.232 18.0793 39.28 18.3673 39.28ZM24.323 35.584C24.323 35.872 24.443 36.092 24.683 36.244C24.931 36.396 25.379 36.496 26.027 36.544C26.723 36.6 27.251 36.768 27.611 37.048C27.979 37.32 28.163 37.72 28.163 38.248V38.32C28.163 38.608 28.103 38.868 27.983 39.1C27.871 39.324 27.711 39.516 27.503 39.676C27.303 39.836 27.055 39.956 26.759 40.036C26.471 40.124 26.155 40.168 25.811 40.168C25.347 40.168 24.947 40.108 24.611 39.988C24.283 39.86 24.007 39.696 23.783 39.496C23.567 39.288 23.403 39.056 23.291 38.8C23.179 38.536 23.115 38.272 23.099 38.008L23.987 37.792C24.027 38.248 24.203 38.616 24.515 38.896C24.827 39.168 25.243 39.304 25.763 39.304C26.203 39.304 26.555 39.22 26.819 39.052C27.091 38.876 27.227 38.632 27.227 38.32C27.227 37.984 27.095 37.744 26.831 37.6C26.567 37.456 26.139 37.364 25.547 37.324C24.859 37.276 24.331 37.116 23.963 36.844C23.595 36.572 23.411 36.176 23.411 35.656V35.584C23.411 35.304 23.471 35.06 23.591 34.852C23.711 34.636 23.871 34.456 24.071 34.312C24.279 34.168 24.511 34.06 24.767 33.988C25.023 33.916 25.291 33.88 25.571 33.88C25.963 33.88 26.307 33.936 26.603 34.048C26.899 34.152 27.147 34.292 27.347 34.468C27.547 34.636 27.699 34.832 27.803 35.056C27.915 35.28 27.987 35.504 28.019 35.728L27.131 35.944C27.091 35.56 26.935 35.26 26.663 35.044C26.399 34.828 26.051 34.72 25.619 34.72C25.451 34.72 25.287 34.74 25.127 34.78C24.975 34.812 24.839 34.864 24.719 34.936C24.599 35.008 24.503 35.1 24.431 35.212C24.359 35.316 24.323 35.44 24.323 35.584ZM30.2306 34.048H32.1026V31.6H33.0386V34.048H35.3426V34.912H33.0386V38.776C33.0386 39.016 33.1466 39.136 33.3626 39.136H35.0546V40H33.0266C32.7546 40 32.5306 39.912 32.3546 39.736C32.1866 39.56 32.1026 39.336 32.1026 39.064V34.912H30.2306V34.048ZM38.4663 37.312C38.4903 37.904 38.6743 38.38 39.0183 38.74C39.3623 39.1 39.8423 39.28 40.4583 39.28C40.7383 39.28 40.9823 39.248 41.1903 39.184C41.3983 39.12 41.5743 39.032 41.7183 38.92C41.8703 38.808 41.9903 38.68 42.0783 38.536C42.1743 38.384 42.2503 38.224 42.3063 38.056L43.1943 38.296C43.0263 38.848 42.7143 39.3 42.2583 39.652C41.8103 39.996 41.2023 40.168 40.4343 40.168C40.0103 40.168 39.6183 40.096 39.2583 39.952C38.9063 39.8 38.6023 39.588 38.3463 39.316C38.0903 39.044 37.8903 38.72 37.7463 38.344C37.6023 37.968 37.5303 37.552 37.5303 37.096V36.808C37.5303 36.392 37.6023 36.004 37.7463 35.644C37.8983 35.284 38.1063 34.976 38.3703 34.72C38.6343 34.456 38.9423 34.252 39.2943 34.108C39.6543 33.956 40.0423 33.88 40.4583 33.88C40.9463 33.88 41.3663 33.972 41.7183 34.156C42.0783 34.332 42.3703 34.552 42.5943 34.816C42.8263 35.08 42.9943 35.368 43.0983 35.68C43.2103 35.992 43.2663 36.28 43.2663 36.544V37.312H38.4663ZM40.4583 34.768C40.1943 34.768 39.9463 34.812 39.7143 34.9C39.4903 34.98 39.2903 35.096 39.1143 35.248C38.9463 35.4 38.8063 35.58 38.6943 35.788C38.5903 35.988 38.5223 36.208 38.4903 36.448H42.3303C42.3143 36.192 42.2503 35.96 42.1383 35.752C42.0343 35.544 41.8943 35.368 41.7183 35.224C41.5503 35.08 41.3543 34.968 41.1303 34.888C40.9143 34.808 40.6903 34.768 40.4583 34.768ZM50.3619 39.136V40H45.1779V38.512L49.4259 35.056V34.912H45.2499V34.048H50.2179V35.488L45.9459 38.992V39.136H50.3619ZM63.3653 40H61.5173L59.4413 34.048H60.5452L62.3693 39.568H62.5133L64.3373 34.048H65.4413L63.3653 40ZM72.7889 37.096C72.7889 37.592 72.7049 38.032 72.5369 38.416C72.3769 38.792 72.1609 39.112 71.8889 39.376C71.6169 39.632 71.2969 39.828 70.9289 39.964C70.5689 40.1 70.1929 40.168 69.8009 40.168C69.4009 40.168 69.0209 40.1 68.6609 39.964C68.3009 39.828 67.9849 39.632 67.7129 39.376C67.4409 39.112 67.2209 38.792 67.0529 38.416C66.8929 38.032 66.8129 37.592 66.8129 37.096V36.952C66.8129 36.464 66.8929 36.032 67.0529 35.656C67.2209 35.272 67.4409 34.948 67.7129 34.684C67.9929 34.42 68.3129 34.22 68.6729 34.084C69.0329 33.948 69.4089 33.88 69.8009 33.88C70.1929 33.88 70.5689 33.948 70.9289 34.084C71.2889 34.22 71.6049 34.42 71.8769 34.684C72.1569 34.948 72.3769 35.272 72.5369 35.656C72.7049 36.032 72.7889 36.464 72.7889 36.952V37.096ZM69.8009 39.28C70.0889 39.28 70.3529 39.232 70.5929 39.136C70.8409 39.032 71.0569 38.884 71.2409 38.692C71.4249 38.5 71.5689 38.272 71.6729 38.008C71.7769 37.736 71.8289 37.432 71.8289 37.096V36.952C71.8289 36.632 71.7769 36.34 71.6729 36.076C71.5689 35.804 71.4249 35.572 71.2409 35.38C71.0569 35.188 70.8409 35.04 70.5929 34.936C70.3449 34.824 70.0809 34.768 69.8009 34.768C69.5209 34.768 69.2569 34.824 69.0089 34.936C68.7609 35.04 68.5449 35.188 68.3609 35.38C68.1769 35.572 68.0329 35.804 67.9289 36.076C67.8249 36.34 67.7729 36.632 67.7729 36.952V37.096C67.7729 37.432 67.8249 37.736 67.9289 38.008C68.0329 38.272 68.1769 38.5 68.3609 38.692C68.5449 38.884 68.7569 39.032 68.9969 39.136C69.2449 39.232 69.5129 39.28 69.8009 39.28ZM74.3166 34.048H76.1886V31.6H77.1246V34.048H79.4286V34.912H77.1246V38.776C77.1246 39.016 77.2326 39.136 77.4486 39.136H79.1406V40H77.1126C76.8406 40 76.6166 39.912 76.4406 39.736C76.2726 39.56 76.1886 39.336 76.1886 39.064V34.912H74.3166V34.048ZM81.5322 34.048H83.6922V34.84H83.8362C83.9882 34.512 84.2042 34.272 84.4842 34.12C84.7642 33.96 85.0842 33.88 85.4442 33.88C86.0442 33.88 86.5282 34.076 86.8962 34.468C87.2642 34.86 87.4602 35.432 87.4842 36.184L86.5002 36.328C86.5002 35.776 86.3682 35.38 86.1042 35.14C85.8402 34.892 85.5162 34.768 85.1322 34.768C84.8842 34.768 84.6682 34.816 84.4842 34.912C84.3082 35.008 84.1602 35.14 84.0402 35.308C83.9202 35.476 83.8322 35.672 83.7762 35.896C83.7202 36.12 83.6922 36.36 83.6922 36.616V39.136H85.2042V40H81.3882V39.136H82.7562V34.912H81.5322V34.048ZM89.8999 37.312C89.9239 37.904 90.1079 38.38 90.4519 38.74C90.7959 39.1 91.2759 39.28 91.8919 39.28C92.1719 39.28 92.4159 39.248 92.6239 39.184C92.8319 39.12 93.0079 39.032 93.1519 38.92C93.3039 38.808 93.4239 38.68 93.5119 38.536C93.6079 38.384 93.6839 38.224 93.7399 38.056L94.6279 38.296C94.4599 38.848 94.1479 39.3 93.6919 39.652C93.2439 39.996 92.6359 40.168 91.8679 40.168C91.4439 40.168 91.0519 40.096 90.6919 39.952C90.3399 39.8 90.0359 39.588 89.7799 39.316C89.5239 39.044 89.3239 38.72 89.1799 38.344C89.0359 37.968 88.9639 37.552 88.9639 37.096V36.808C88.9639 36.392 89.0359 36.004 89.1799 35.644C89.3319 35.284 89.5399 34.976 89.8039 34.72C90.0679 34.456 90.3759 34.252 90.7279 34.108C91.0879 33.956 91.4759 33.88 91.8919 33.88C92.3799 33.88 92.7999 33.972 93.1519 34.156C93.5119 34.332 93.8039 34.552 94.0279 34.816C94.2599 35.08 94.4279 35.368 94.5319 35.68C94.6439 35.992 94.6999 36.28 94.6999 36.544V37.312H89.8999ZM91.8919 34.768C91.6279 34.768 91.3799 34.812 91.1479 34.9C90.9239 34.98 90.7239 35.096 90.5479 35.248C90.3799 35.4 90.2399 35.58 90.1279 35.788C90.0239 35.988 89.9559 36.208 89.9239 36.448H93.7639C93.7479 36.192 93.6839 35.96 93.5719 35.752C93.4679 35.544 93.3279 35.368 93.1519 35.224C92.9839 35.08 92.7879 34.968 92.5639 34.888C92.3479 34.808 92.1239 34.768 91.8919 34.768ZM107.451 40H105.603L103.527 34.048H104.631L106.455 39.568H106.599L108.423 34.048H109.527L107.451 40ZM113.107 32.272C113.107 32.04 113.187 31.844 113.347 31.684C113.515 31.516 113.715 31.432 113.947 31.432C114.179 31.432 114.375 31.516 114.535 31.684C114.703 31.844 114.787 32.04 114.787 32.272C114.787 32.504 114.703 32.704 114.535 32.872C114.375 33.032 114.179 33.112 113.947 33.112C113.715 33.112 113.515 33.032 113.347 32.872C113.187 32.704 113.107 32.504 113.107 32.272ZM111.403 39.136H113.491V34.912H111.619V34.048H114.427V39.136H116.371V40H111.403V39.136ZM119.843 35.584C119.843 35.872 119.963 36.092 120.203 36.244C120.451 36.396 120.899 36.496 121.547 36.544C122.243 36.6 122.771 36.768 123.131 37.048C123.499 37.32 123.683 37.72 123.683 38.248V38.32C123.683 38.608 123.623 38.868 123.503 39.1C123.391 39.324 123.231 39.516 123.023 39.676C122.823 39.836 122.575 39.956 122.279 40.036C121.991 40.124 121.675 40.168 121.331 40.168C120.867 40.168 120.467 40.108 120.131 39.988C119.803 39.86 119.527 39.696 119.303 39.496C119.087 39.288 118.923 39.056 118.811 38.8C118.699 38.536 118.635 38.272 118.619 38.008L119.507 37.792C119.547 38.248 119.723 38.616 120.035 38.896C120.347 39.168 120.763 39.304 121.283 39.304C121.723 39.304 122.075 39.22 122.339 39.052C122.611 38.876 122.747 38.632 122.747 38.32C122.747 37.984 122.615 37.744 122.351 37.6C122.087 37.456 121.659 37.364 121.067 37.324C120.379 37.276 119.851 37.116 119.483 36.844C119.115 36.572 118.931 36.176 118.931 35.656V35.584C118.931 35.304 118.991 35.06 119.111 34.852C119.231 34.636 119.391 34.456 119.591 34.312C119.799 34.168 120.031 34.06 120.287 33.988C120.543 33.916 120.811 33.88 121.09 33.88C121.483 33.88 121.827 33.936 122.123 34.048C122.419 34.152 122.667 34.292 122.867 34.468C123.067 34.636 123.219 34.832 123.323 35.056C123.435 35.28 123.507 35.504 123.539 35.728L122.651 35.944C122.611 35.56 122.455 35.26 122.183 35.044C121.919 34.828 121.571 34.72 121.139 34.72C120.971 34.72 120.807 34.74 120.646 34.78C120.495 34.812 120.359 34.864 120.239 34.936C120.119 35.008 120.023 35.1 119.951 35.212C119.879 35.316 119.843 35.44 119.843 35.584ZM127.802 32.272C127.802 32.04 127.882 31.844 128.042 31.684C128.21 31.516 128.41 31.432 128.642 31.432C128.874 31.432 129.07 31.516 129.23 31.684C129.398 31.844 129.482 32.04 129.482 32.272C129.482 32.504 129.398 32.704 129.23 32.872C129.07 33.032 128.874 33.112 128.642 33.112C128.41 33.112 128.21 33.032 128.042 32.872C127.882 32.704 127.802 32.504 127.802 32.272ZM126.098 39.136H128.186V34.912H126.314V34.048H129.122V39.136H131.066V40H126.098V39.136ZM134.022 40H133.086V31.6H134.022V34.984H134.166C134.374 34.624 134.662 34.352 135.03 34.168C135.398 33.976 135.798 33.88 136.23 33.88C136.598 33.88 136.946 33.948 137.274 34.084C137.602 34.22 137.89 34.416 138.138 34.672C138.394 34.928 138.594 35.244 138.738 35.62C138.89 35.996 138.966 36.424 138.966 36.904V37.144C138.966 37.632 138.894 38.064 138.75 38.44C138.606 38.816 138.406 39.132 138.15 39.388C137.902 39.644 137.61 39.84 137.274 39.976C136.938 40.104 136.582 40.168 136.206 40.168C136.014 40.168 135.818 40.144 135.618 40.096C135.418 40.056 135.226 39.992 135.042 39.904C134.866 39.808 134.702 39.696 134.55 39.568C134.398 39.432 134.27 39.272 134.166 39.088H134.022V40ZM136.014 39.28C136.302 39.28 136.566 39.232 136.806 39.136C137.046 39.032 137.254 38.888 137.43 38.704C137.614 38.52 137.754 38.296 137.85 38.032C137.954 37.768 138.006 37.472 138.006 37.144V36.904C138.006 36.584 137.954 36.296 137.85 36.04C137.754 35.776 137.614 35.552 137.43 35.368C137.254 35.176 137.042 35.028 136.794 34.924C136.554 34.82 136.294 34.768 136.014 34.768C135.734 34.768 135.474 34.824 135.234 34.936C134.994 35.04 134.782 35.188 134.598 35.38C134.422 35.572 134.282 35.804 134.178 36.076C134.074 36.34 134.022 36.632 134.022 36.952V37.096C134.022 37.424 134.074 37.724 134.178 37.996C134.282 38.26 134.422 38.488 134.598 38.68C134.782 38.872 134.994 39.02 135.234 39.124C135.474 39.228 135.734 39.28 136.014 39.28ZM142.497 32.272C142.497 32.04 142.577 31.844 142.737 31.684C142.905 31.516 143.105 31.432 143.337 31.432C143.569 31.432 143.765 31.516 143.925 31.684C144.093 31.844 144.177 32.04 144.177 32.272C144.177 32.504 144.093 32.704 143.925 32.872C143.765 33.032 143.569 33.112 143.337 33.112C143.105 33.112 142.905 33.032 142.737 32.872C142.577 32.704 142.497 32.504 142.497 32.272ZM140.793 39.136H142.881V34.912H141.009V34.048H143.817V39.136H145.761V40H140.793V39.136ZM147.997 39.136H150.157V32.464H148.069V31.6H151.093V39.136H153.253V40H147.997V39.136ZM157.193 32.272C157.193 32.04 157.273 31.844 157.433 31.684C157.601 31.516 157.801 31.432 158.033 31.432C158.265 31.432 158.461 31.516 158.621 31.684C158.789 31.844 158.873 32.04 158.873 32.272C158.873 32.504 158.789 32.704 158.621 32.872C158.461 33.032 158.265 33.112 158.033 33.112C157.801 33.112 157.601 33.032 157.433 32.872C157.273 32.704 157.193 32.504 157.193 32.272ZM155.489 39.136H157.577V34.912H155.705V34.048H158.513V39.136H160.457V40H155.489V39.136ZM162.488 34.048H164.36V31.6H165.296V34.048H167.6V34.912H165.296V38.776C165.296 39.016 165.404 39.136 165.62 39.136H167.312V40H165.284C165.012 40 164.788 39.912 164.612 39.736C164.444 39.56 164.36 39.336 164.36 39.064V34.912H162.488V34.048ZM170.724 37.312C170.748 37.904 170.932 38.38 171.276 38.74C171.62 39.1 172.1 39.28 172.716 39.28C172.996 39.28 173.24 39.248 173.448 39.184C173.656 39.12 173.832 39.032 173.976 38.92C174.128 38.808 174.248 38.68 174.336 38.536C174.432 38.384 174.508 38.224 174.564 38.056L175.452 38.296C175.284 38.848 174.972 39.3 174.516 39.652C174.068 39.996 173.46 40.168 172.692 40.168C172.268 40.168 171.876 40.096 171.516 39.952C171.164 39.8 170.86 39.588 170.604 39.316C170.348 39.044 170.148 38.72 170.004 38.344C169.86 37.968 169.788 37.552 169.788 37.096V36.808C169.788 36.392 169.86 36.004 170.004 35.644C170.156 35.284 170.364 34.976 170.628 34.72C170.892 34.456 171.2 34.252 171.552 34.108C171.912 33.956 172.3 33.88 172.716 33.88C173.204 33.88 173.624 33.972 173.976 34.156C174.336 34.332 174.628 34.552 174.852 34.816C175.084 35.08 175.252 35.368 175.356 35.68C175.468 35.992 175.524 36.28 175.524 36.544V37.312H170.724ZM172.716 34.768C172.452 34.768 172.204 34.812 171.972 34.9C171.748 34.98 171.548 35.096 171.372 35.248C171.204 35.4 171.064 35.58 170.952 35.788C170.848 35.988 170.78 36.208 170.748 36.448H174.588C174.572 36.192 174.508 35.96 174.396 35.752C174.292 35.544 174.152 35.368 173.976 35.224C173.808 35.08 173.612 34.968 173.388 34.888C173.172 34.808 172.948 34.768 172.716 34.768ZM174.144 31.744L173.136 33.16H172.272L173.064 31.744H174.144ZM189.883 40H188.155L187.435 34.48H187.291L186.571 40H184.843L183.907 34.048H184.867L185.659 39.568H185.803L186.499 34.048H188.227L188.923 39.568H189.067L189.859 34.048H190.819L189.883 40ZM192.767 37.312C192.791 37.904 192.975 38.38 193.319 38.74C193.663 39.1 194.143 39.28 194.759 39.28C195.039 39.28 195.283 39.248 195.491 39.184C195.699 39.12 195.875 39.032 196.019 38.92C196.171 38.808 196.291 38.68 196.379 38.536C196.475 38.384 196.551 38.224 196.607 38.056L197.495 38.296C197.327 38.848 197.015 39.3 196.559 39.652C196.111 39.996 195.503 40.168 194.735 40.168C194.311 40.168 193.919 40.096 193.559 39.952C193.207 39.8 192.903 39.588 192.647 39.316C192.391 39.044 192.191 38.72 192.047 38.344C191.903 37.968 191.831 37.552 191.831 37.096V36.808C191.831 36.392 191.903 36.004 192.047 35.644C192.199 35.284 192.407 34.976 192.671 34.72C192.935 34.456 193.243 34.252 193.595 34.108C193.955 33.956 194.343 33.88 194.759 33.88C195.247 33.88 195.667 33.972 196.019 34.156C196.379 34.332 196.671 34.552 196.895 34.816C197.127 35.08 197.295 35.368 197.399 35.68C197.511 35.992 197.567 36.28 197.567 36.544V37.312H192.767ZM194.759 34.768C194.495 34.768 194.247 34.812 194.015 34.9C193.791 34.98 193.591 35.096 193.415 35.248C193.247 35.4 193.107 35.58 192.995 35.788C192.891 35.988 192.823 36.208 192.791 36.448H196.631C196.615 36.192 196.551 35.96 196.439 35.752C196.335 35.544 196.195 35.368 196.019 35.224C195.851 35.08 195.655 34.968 195.431 34.888C195.215 34.808 194.991 34.768 194.759 34.768ZM200.151 40H199.215V31.6H200.151V34.984H200.295C200.503 34.624 200.791 34.352 201.159 34.168C201.527 33.976 201.927 33.88 202.359 33.88C202.727 33.88 203.075 33.948 203.403 34.084C203.731 34.22 204.019 34.416 204.267 34.672C204.523 34.928 204.723 35.244 204.867 35.62C205.019 35.996 205.095 36.424 205.095 36.904V37.144C205.095 37.632 205.023 38.064 204.879 38.44C204.735 38.816 204.535 39.132 204.279 39.388C204.031 39.644 203.739 39.84 203.403 39.976C203.067 40.104 202.711 40.168 202.335 40.168C202.143 40.168 201.947 40.144 201.747 40.096C201.547 40.056 201.355 39.992 201.171 39.904C200.995 39.808 200.831 39.696 200.679 39.568C200.527 39.432 200.399 39.272 200.295 39.088H200.151V40ZM202.143 39.28C202.431 39.28 202.695 39.232 202.935 39.136C203.175 39.032 203.383 38.888 203.559 38.704C203.743 38.52 203.883 38.296 203.979 38.032C204.083 37.768 204.135 37.472 204.135 37.144V36.904C204.135 36.584 204.083 36.296 203.979 36.04C203.883 35.776 203.743 35.552 203.559 35.368C203.383 35.176 203.171 35.028 202.923 34.924C202.683 34.82 202.423 34.768 202.143 34.768C201.863 34.768 201.603 34.824 201.363 34.936C201.123 35.04 200.911 35.188 200.727 35.38C200.551 35.572 200.411 35.804 200.307 36.076C200.203 36.34 200.151 36.632 200.151 36.952V37.096C200.151 37.424 200.203 37.724 200.307 37.996C200.411 38.26 200.551 38.488 200.727 38.68C200.911 38.872 201.123 39.02 201.363 39.124C201.603 39.228 201.863 39.28 202.143 39.28Z" fill="#EBB42C"/>
<path d="M2 25H54V27H2V25Z" fill="#09756C"/>
<rect x="54" y="25" width="153" height="2" fill="#EBB42C"/>
<path d="M10.636 20.11C7.732 20.11 5.51 19.4427 3.97 18.108C2.43 16.7587 1.66 14.764 1.66 12.124C1.66 9.49867 2.43 7.51133 3.97 6.162C5.51 4.81267 7.732 4.14533 10.636 4.16L18.556 4.204V7.02H10.878C8.97133 7.02 7.556 7.42333 6.632 8.23C5.708 9.03667 5.246 10.3347 5.246 12.124C5.246 13.9133 5.708 15.2187 6.632 16.04C7.556 16.8467 8.97133 17.25 10.878 17.25H18.776V20.11H10.636ZM26.4516 20.11C24.4863 20.11 22.9536 19.626 21.8536 18.658C20.7536 17.6753 20.2036 16.238 20.2036 14.346C20.2036 12.4393 20.7536 11.002 21.8536 10.034C22.9536 9.05133 24.4863 8.56 26.4516 8.56H31.9516C33.2423 8.56 34.2249 8.868 34.8996 9.484C35.5889 10.0853 35.9336 10.9507 35.9336 12.08C35.9336 14.3827 34.6063 15.534 31.9516 15.534H23.6356C23.9436 16.898 24.8823 17.58 26.4516 17.58H35.3616V20.11H26.4516ZM26.4516 11.09C24.9409 11.09 24.0096 11.728 23.6576 13.004H31.7976C32.0909 13.004 32.3183 12.916 32.4796 12.74C32.6556 12.564 32.7436 12.322 32.7436 12.014C32.7436 11.398 32.4283 11.09 31.7976 11.09H26.4516ZM37.917 20V4.27H41.107V20H37.917ZM49.4205 20C48.1445 20 47.2058 19.6847 46.6045 19.054C46.0031 18.4087 45.7025 17.5653 45.7025 16.524V11.2H42.4245V8.67H45.7025V5.194H48.8925V8.67H53.6005V11.2H48.8925V16.128C48.8925 17.0227 49.3325 17.47 50.2125 17.47H54.2165V20H49.4205ZM55.8565 20V8.67H59.0465V20H55.8565ZM55.8345 6.8V4.314H59.0685V6.8H55.8345ZM67.2719 20.11C65.3066 20.11 63.7739 19.626 62.6739 18.658C61.5739 17.6753 61.0239 16.238 61.0239 14.346C61.0239 12.4393 61.5739 11.002 62.6739 10.034C63.7739 9.05133 65.3066 8.56 67.2719 8.56H74.6419V11.09H67.2719C66.3186 11.09 65.5852 11.354 65.0719 11.882C64.5732 12.41 64.3239 13.2313 64.3239 14.346C64.3239 15.446 64.5732 16.26 65.0719 16.788C65.5852 17.316 66.3186 17.58 67.2719 17.58H74.8619V20.11H67.2719ZM78.153 20L76.393 4.27H79.913L81.211 15.754L85.589 12.388V4.27H89.109V12.41L93.443 15.754L94.763 4.27H98.283L96.523 20H93.575L87.349 14.962L81.101 20H78.153ZM106.073 20.11C104.107 20.11 102.575 19.626 101.475 18.658C100.375 17.6753 99.8247 16.238 99.8247 14.346C99.8247 12.4393 100.375 11.002 101.475 10.034C102.575 9.05133 104.107 8.56 106.073 8.56H111.573C112.863 8.56 113.846 8.868 114.521 9.484C115.21 10.0853 115.555 10.9507 115.555 12.08C115.555 14.3827 114.227 15.534 111.573 15.534H103.257C103.565 16.898 104.503 17.58 106.073 17.58H114.983V20.11H106.073ZM106.073 11.09C104.562 11.09 103.631 11.728 103.279 13.004H111.419C111.712 13.004 111.939 12.916 112.101 12.74C112.277 12.564 112.365 12.322 112.365 12.014C112.365 11.398 112.049 11.09 111.419 11.09H106.073ZM117.538 20V4.27H120.728V20H117.538ZM118.088 20V17.47H125.678C126.631 17.47 127.357 17.2133 127.856 16.7C128.369 16.172 128.626 15.3873 128.626 14.346C128.626 13.29 128.369 12.5053 127.856 11.992C127.357 11.464 126.631 11.2 125.678 11.2H118.308V8.67H125.678C127.643 8.67 129.176 9.154 130.276 10.122C131.376 11.09 131.926 12.498 131.926 14.346C131.926 16.1793 131.376 17.58 130.276 18.548C129.176 19.516 127.643 20 125.678 20H118.088ZM142.335 20.11C139.431 20.11 137.209 19.4427 135.669 18.108C134.129 16.7587 133.359 14.764 133.359 12.124C133.359 9.49867 134.129 7.51133 135.669 6.162C137.209 4.81267 139.431 4.14533 142.335 4.16L150.255 4.204V7.02H142.577C140.671 7.02 139.255 7.42333 138.331 8.23C137.407 9.03667 136.945 10.3347 136.945 12.124C136.945 13.9133 137.407 15.2187 138.331 16.04C139.255 16.8467 140.671 17.25 142.577 17.25H150.475V20.11H142.335ZM152.343 20V8.67H161.011C162.287 8.67 163.225 8.99267 163.827 9.638C164.428 10.2687 164.729 11.1047 164.729 12.146V14.5H161.495V12.542C161.495 11.662 161.055 11.222 160.175 11.222H155.577V20H152.343ZM169.494 20C168.306 20 167.396 19.6993 166.766 19.098C166.135 18.4967 165.82 17.6387 165.82 16.524C165.82 15.424 166.135 14.5733 166.766 13.972C167.396 13.3707 168.306 13.07 169.494 13.07H177.942V12.542C177.942 11.6473 177.502 11.2 176.622 11.2H167.294V8.67H177.458C178.792 8.67 179.738 8.978 180.296 9.594C180.853 10.1953 181.132 11.046 181.132 12.146V20H169.494ZM170.066 17.47H177.942V15.6H170.066C169.787 15.6 169.567 15.688 169.406 15.864C169.259 16.0253 169.186 16.2453 169.186 16.524C169.186 16.8027 169.259 17.03 169.406 17.206C169.567 17.382 169.787 17.47 170.066 17.47ZM186.068 20V11.2H182.79V8.67H186.068V7.79C186.068 6.74867 186.368 5.91267 186.97 5.282C187.571 4.63667 188.51 4.314 189.786 4.314H194.582V6.844H190.578C189.698 6.844 189.258 7.29133 189.258 8.186V8.67H193.966V11.2H189.258V20H186.068ZM201.917 20C200.641 20 199.702 19.6847 199.101 19.054C198.499 18.4087 198.199 17.5653 198.199 16.524V11.2H194.921V8.67H198.199V5.194H201.389V8.67H206.097V11.2H201.389V16.128C201.389 17.0227 201.829 17.47 202.709 17.47H206.713V20H201.917Z" fill="#EBB42C"/>
</svg>
