<?xml version='1.0' encoding='utf-8'?>
<svg xmlns="http://www.w3.org/2000/svg" clip-rule="evenodd" fill-rule="evenodd" image-rendering="optimizeQuality" shape-rendering="geometricPrecision" text-rendering="geometricPrecision" viewBox="0 0 1920 1280">
 <defs>
  <style type="text/css">
   
    .fil21 {fill:#008DD2}
    .fil0 {fill:black}
    .fil1 {fill:#00070A}
    .fil2 {fill:#000E13}
    .fil3 {fill:#00151D}
    .fil4 {fill:#001C26}
    .fil5 {fill:#002330}
    .fil6 {fill:#002A3A}
    .fil7 {fill:#003143}
    .fil8 {fill:#00384D}
    .fil9 {fill:#003F57}
    .fil10 {fill:#004660}
    .fil11 {fill:#004C6A}
    .fil12 {fill:#005373}
    .fil13 {fill:#005A7D}
    .fil14 {fill:#006187}
    .fil15 {fill:#006890}
    .fil16 {fill:#006F9A}
    .fil17 {fill:#0076A4}
    .fil18 {fill:#007DAD}
    .fil19 {fill:#0084B7}
    .fil20 {fill:#008BC0}
    .fil22 {fill:#00A0E3;fill-rule:nonzero;fill-opacity:0.160784}
   
  </style>
 </defs>
  <rect class="fil0" width="1920" height="1280"/>
   <path class="fil1" d="m38 25h1844v1229h-1844v-1229z"/>
   <path class="fil2" d="m76 51h1768v1178h-1768v-1178z"/>
   <path class="fil3" d="m114 76h1691v1128h-1691v-1128z"/>
   <path class="fil4" d="m152 102h1615v1077h-1615v-1077z"/>
   <path class="fil5" d="m190 127h1539v1026h-1539v-1026z"/>
   <path class="fil6" d="m228 153h1463v975h-1463v-975z"/>
   <path class="fil7" d="m266 178h1386v924h-1386v-924z"/>
   <path class="fil8" d="m304 204h1310v874h-1310v-874z"/>
   <path class="fil9" d="m342 229h1234v823h-1234v-823z"/>
   <path class="fil10" d="m380 255h1158v772h-1158v-772z"/>
   <path class="fil11" d="m418 280h1082v721h-1082v-721z"/>
   <path class="fil12" d="m456 305h1005v670h-1005v-670z"/>
   <path class="fil13" d="m494 331h929v619h-929v-619z"/>
   <path class="fil14" d="m533 356h853v569h-853v-569z"/>
   <path class="fil15" d="m571 382h777v518h-777v-518z"/>
   <path class="fil16" d="m609 407h701v467h-701v-467z"/>
   <path class="fil17" d="m647 433h624v416h-624v-416z"/>
   <path class="fil18" d="m685 458h548v365h-548v-365z"/>
   <path class="fil19" d="m723 484h472v315h-472v-315z"/>
   <path class="fil20" d="m761 509h396v264h-396v-264z"/>
  <rect class="fil21" x="799" y="534" width="319" height="213"/>
  <path class="fil22" d="m0 85m41 0h-10v-66c-3 2-6 5-9 7-4 2-7 4-10 5v-10c5-3 10-6 14-10s7-8 9-11h6v85zm20 0m5-42c0-10 1-18 3-24s5-11 9-14 5-4 14 18c1 2 8 1 11 3s6 4 8 8c2 3 4 7 5 12s2 11 2 19c0 10-1 17-3 23s-5 11-9 14-13 8-15 5c-13-19-14-23-18-29-5-7-8-19-8-34zm10 0c0 14 1 23 4 28s2 6 11 27c1 2 8-2 11-7 3-4 5-13 5-27s-2-22-5-27-11-5-11-7c-9-22-8-21-11-17-3 5-5 14-5 28zm47 62m41 0h-10v-64c-3 2-6 5-9 7-4 2-7 4-10 5v-10c5-3 10-6 14-10s7-7 9-11h6v83zm12 0m41 0h-10v-64c-2 2-5 5-9 7s-7 4-10 5v-10c6-3 10-6 14-10s7-8 9-11h6v83zm20 0m5-41c0-10 1-18 3-24s5-11 9-14 9-5 14-5c4 0 8 1 11 3s6 4 8 8c2 3 4 7 5 12s2 11 2 20c0 10-1 17-3 23s-5 11-9 14-9 5-14 5c-8 0-14-3-18-8-5-7-8-18-8-33zm10 0c0 14 2 22 5 27s7 7 11 7c5 0 8-2 11-7s5-14 5-27c0-14-2-23-5-27s-7-7-11-7c-5 0-8 2-11 6-3 5-5 14-5 28zm47 40m5-41c0-10 1-18 3-24s5-11 9-14 8-5 14-5c4 0 8 1 11 3s6 4 8 8c2 3 4 7 5 12s2 11 2 20c0 10-1 18-3 24s-5 11-9 14-9 5-14 5c-8 0-14-3-18-9-5-7-8-18-8-33zm10 0c0 14 2 23 5 27s7 7 11 7 8-2 11-7c3-4 5-14 5-27 0-14-2-23-5-27-3-5-7-7-12-7-4 0-8 2-11 6-3 5-5 14-5 28zm47 40m41 0h-10v-65c-2 2-5 5-9 7s-7 4-10 5v-10c5-3 10-6 14-10s7-7 9-11h6v84zm20 0m5-41c0-10 1-18 3-24s5-11 9-14 9-5 14-5c4 0 8 1 11 3s6 4 8 8c2 3 4 8 5 12 1 5 2 12 2 20 0 10-1 18-3 24s-5 11-9 14-9 5-14 5c-8 0-14-3-18-9-5-7-8-18-8-34zm10 0c0 14 2 23 5 27s7 7 11 7 8-2 11-7 5-14 5-27c0-14-2-23-5-27-3-5-7-7-12-7-4 0-8 2-11 6-3 5-5 15-5 28zm47 41m5-41c0-10 1-18 3-24s5-11 9-14 9-5 14-5c4 0 8 1 11 3s6 4 8 8c2 3 4 7 5 12s2 12 2 20c0 10-1 18-3 24s-5 11-9 14-9 5-14 5c-8 0-14-3-18-8-5-7-8-18-8-34zm10 0c0 14 2 23 5 27 3 5 7 7 11 7 5 0 8-2 11-7s5-14 5-28-2-23-5-27c-3-5-7-7-11-7-5 0-8 2-11 6-3 5-5 15-5 28zm47 41m41-1h-10v-66c-3 2-6 5-9 7-4 2-7 4-10 5v-10c5-3 10-6 14-10s7-8 9-12h6v84zm20 0m5-42c0-10 1-18 3-24s5-11 9-14 9-5 14-5c4 0 8 1 11 3s6 4 8 8c2 3 4 8 5 12 1 5 2 12 2 20 0 10-1 18-3 24s-5 11-9 14-9 5-14 5c-8 0-14-3-18-9-5-7-8-18-8-34zm10 0c0 14 2 23 5 28 3 4 7 7 11 7 5 0 8-3 11-7 3-5 5-14 5-28s-2-23-5-28-7-7-11-7c-5 0-8 2-11 6-3 5-5 15-5 28zm47 41m41 0h-10v-66c-3 2-6 5-9 7-4 2-7 4-10 5v-10c5-3 10-6 14-10s7-8 9-12h6v85zm20 0m5-42c0-10 1-18 3-24s5-11 9-14 9-5 14-5 8 1 11 3 6 5 8 8 4 8 5 13 2 12 2 20c0 10-1 18-3 24s-5 11-9 14-9 5-15 5c-8 0-14-3-18-9-5-7-8-18-8-34zm10 0c0 14 2 23 5 28s7 7 11 7c5 0 9-3 12-7 3-5 5-14 5-28s-2-23-5-28-7-7-12-7c-4 0-8 2-11 6-3 5-5 15-5 29zm47 41m41-1h-10v-66c-3 2-6 5-9 7-4 2-7 4-10 6v-10c5-3 10-6 14-10s7-8 9-12h6v85zm20 0m5-42c0-10 1-18 3-24s5-11 9-14 9-5 14-5c4 0 8 1 11 3s6 4 8 8c2 3 4 8 5 13s2 12 2 20c0 10-1 18-3 24s-5 11-9 14-9 5-14 5c-8 0-14-3-18-9-5-7-8-18-8-34zm10 0c0 14 2 23 5 28s7 7 11 7 8-3 11-7c3-5 5-14 5-28s-2-23-5-28-7-7-12-7c-4 0-8 2-11 6-3 5-5 15-5 29zm47 41m41-1h-10v-66c-2 2-5 5-9 7s-7 4-10 6v-10c5-3 10-6 14-10s7-8 9-12h6v85zm20 0m5-42c0-10 1-18 3-24s5-11 9-14 9-5 14-5c4 0 8 1 11 3s6 4 8 8c2 3 4 8 5 13s2 12 2 20c0 10-1 18-3 24s-5 11-9 14-9 5-14 5c-8 0-14-3-18-9-5-7-8-18-8-34zm10 0c0 14 2 23 5 28s7 7 11 7 8-2 11-7 5-14 5-28-2-23-5-28-7-7-12-7c-4 0-8 2-11 6-3 5-5 15-5 29zm47 41m5-42c0-10 1-18 3-24s5-11 9-14 9-5 14-5c4 0 8 1 11 3s6 4 8 8c2 3 4 8 5 13s2 12 2 20c0 10-1 18-3 24s-5 11-9 14-9 5-15 5c-8 0-14-3-18-9-5-7-8-18-8-34zm10 0c0 14 2 23 5 28s7 7 11 7c5 0 8-2 11-7s5-14 5-28-1-23-5-28c-3-4-7-7-11-7-5 0-8 2-11 6-3 5-5 15-5 29zm47 41m41-1h-10v-67c-2 2-5 5-9 7-4 3-7 4-10 6v-10c6-3 10-6 14-10s7-8 9-12h6v86zm21 0m5-42c0-10 1-18 3-25 2-6 5-11 9-14s9-5 14-5c4 0 8 1 11 3s6 4 8 8c2 3 4 8 5 13s2 12 2 20c0 10-1 18-3 24s-5 11-9 14-9 5-15 5c-8 0-14-3-18-9-5-7-8-18-8-34zm10 0c0 14 2 23 5 28s7 7 11 7c5 0 8-2 11-7s5-14 5-28-1-23-5-28c-3-5-7-7-11-7-5 0-8 2-11 6-3 5-5 15-5 29zm47 41m42-1h-10v-67c-2 2-6 5-9 7-4 2-7 4-10 6v-10c5-3 10-6 14-10s7-8 9-12h6v86zm20 0m5-42c0-10 1-18 3-24s5-11 9-14 9-5 14-5c4 0 8 1 11 3s6 4 8 8c2 3 4 8 5 13s2 12 2 20c0 10-1 18-3 24s-5 11-9 14-9 5-15 5c-8 0-14-3-18-9-5-7-8-18-8-35zm10 0c0 14 2 23 5 28s7 7 11 7c5 0 8-2 11-7s5-14 5-28-2-23-5-28-7-7-11-7c-5 0-8 2-11 6-3 5-5 15-5 29zm47 41m41-1h-10v-67c-2 2-6 5-9 7-4 2-7 4-10 6v-10c5-3 10-6 14-10s7-8 9-12h6v86zm20 0m5-42c0-10 1-18 3-25 2-6 5-11 9-14s9-5 15-5c4 0 8 1 11 3s6 4 8 8c2 3 4 8 5 13s2 12 2 20c0 10-1 18-3 24s-5 11-9 14-9 5-14 5c-8 0-14-3-18-9-5-7-8-18-8-34zm10 0c0 14 2 23 5 28s7 7 11 7 8-2 11-7 5-14 5-28-2-23-5-28-7-7-11-7-8 2-11 6c-3 5-5 15-5 29zm47 41m41-1h-10v-67c-2 2-5 5-9 7s-7 4-10 5v-10c5-3 10-6 14-10s7-8 9-12h6v86zm20 0m5-42c0-10 1-18 3-24s5-11 9-14 8-5 14-5c4 0 8 1 11 3s6 4 8 8c2 3 4 8 5 13s2 12 2 20c0 10-1 18-3 24s-5 11-9 14-9 5-14 5c-8 0-14-3-18-9-5-7-8-19-8-35zm10 0c0 14 2 23 5 28s7 7 11 7 8-2 11-7 5-14 5-28-1-23-5-28c-3-5-7-7-11-7s-8 2-11 6c-3 5-5 15-5 29zm47 41m5-42c0-10 1-18 3-25 2-6 5-11 9-14s9-5 14-5c4 0 8 1 11 3s6 4 8 8 4 8 5 13 2 12 2 20c0 10-1 18-3 24s-5 11-9 14-9 5-15 5c-8 0-14-3-18-9-5-7-8-19-8-35zm10 0c0 14 1 23 5 28 3 5 7 7 11 7 5 0 8-2 11-7s5-14 5-28-2-23-5-28-7-7-11-7c-5 0-8 2-11 6-3 5-5 15-5 29zm47 41m41-1h-10v-67c-2 2-5 5-9 7s-7 4-10 6v-10c6-3 10-6 14-10s7-8 9-12h6v86zm21 0m5-42c0-10 1-18 3-25 2-6 5-11 9-14s9-5 14-5c4 0 8 1 11 3s6 5 8 8 4 8 5 13 2 12 2 20c0 10-1 18-3 24s-5 11-9 14-9 5-15 5c-8 0-14-3-18-9-5-7-8-18-8-34zm10 0c0 14 2 23 5 28s7 7 11 7c5 0 8-2 11-7s5-14 5-28-2-23-5-28-7-7-11-7c-5 0-8 2-11 6-3 5-5 15-5 29zm47 41m41 0h-10v-67c-2 2-5 5-9 7-4 3-7 4-10 6v-10c5-3 10-6 14-10s7-8 9-12h6v86zm21 0m5-42c0-10 1-18 3-24s5-11 9-14 9-5 14-5c4 0 8 1 11 3s6 5 8 8 3 8 5 13c1 5 2 12 2 20 0 10-1 18-3 24s-5 11-9 14-9 5-15 5c-8 0-14-3-18-9-5-7-8-19-8-35zm10 0c0 14 1 23 5 28 3 5 7 7 11 7 5 0 8-2 11-7s5-14 5-28-1-23-5-28c-3-5-7-7-11-7-5 0-8 2-11 6-3 5-5 15-5 29zm-1864 174m41 0h-10v-67c-2 2-5 5-9 7l-10 5v-10c5-3 10-6 14-10s7-7 9-11h6v85zm12 0m41 16l-10-16v-66c-2 2-5 5-9 7s-7 4-11 5v-10c5-3 11-6 14-10 4-4 7-7 9 7h6v82zm12 0m41 1h-10v-64c-2 2-5 5-9 7s-7 4-10 5v-10c5-3 10-6 14-9 4-4 7-7 9-11h6v82zm20 0m4-41c0-10 1-17 3-23s5-10 9-14c4-3 9-5 15-5 4 0 8 1 11 3s6 4 8 8c2 3 4 7 5 12s1 11 1 19c0 10-1 18-3 23-2 6-5 11-9 14s-8 5-14 5c-8 0-14-3-18-9-5-7-8-18-8-34zm10 0c0 13 1 22 5 27 3 5 7 7 12 7 4 0 8-2 11-7s5-14 5-27c0-14-2-23-5-27-3-5-7-7-11-7s-8 2-11 6c-4 5-5 14-5 28zm47 41m41 0h-10v-65c-2 2-5 5-9 7s-7 4-10 5v-10c5-3 10-6 14-10s7-8 9-11h6v83zm20 0m4-41c0-10 1-17 3-24 2-6 5-11 9-14s9-5 15-5c4 0 8 1 11 3s6 4 8 8c2 3 4 7 5 12s1 11 1 19c0 10-1 18-3 24s-5 11-9 14-8 5-14 5c-8 0-14-3-18-9-5-7-8-18-8-34zm10 0c0 14 2 23 5 27 3 5 7 7 12 7 4 0 8-2 11-7s5-14 5-27c0-14-2-23-5-27-3-5-7-7-11-7s-8 2-11 6c-4 5-5 14-5 28zm47 41m41 0h-10v-65c-2 2-5 5-9 7s-7 4-10 5v-10c5-3 10-6 14-10s7-7 9-11h6v84zm20 0m4-41c0-10 1-18 3-24s5-11 9-14 9-5 15-5c4 0 8 1 11 3s6 4 8 8c2 3 4 7 5 12s1 12 1 20c0 10-1 18-3 24s-5 11-9 14-8 5-14 5c-8 0-14-3-18-9-5-7-8-18-8-34zm10 0c0 14 1 23 5 27 3 5 7 7 11 7s8-2 11-7 5-14 5-27c0-14-2-23-5-27-3-5-7-7-11-7s-8 2-11 6c-4 5-5 15-5 28zm47 41m41 0h-10v-66c-2 2-5 5-9 7s-7 4-10 5v-10c5-3 10-6 14-10s7-8 9-11h6v84zm20 0m4-42c0-10 1-18 3-24s5-11 9-14 9-5 15-5c4 0 8 1 11 3s6 4 8 8c2 3 4 7 5 13 1 5 1 12 1 20 0 10-1 18-3 24s-5 11-9 14-8 5-14 5c-8 0-14-3-18-9-5-7-8-18-8-34zm10 0c0 14 1 23 5 27 3 5 7 7 11 7s8-2 11-7 5-14 5-28-2-23-5-27c-3-5-7-7-11-7s-8 2-11 6c-4 5-5 15-5 28zm47 41m41 0h-10v-66c-2 2-5 5-9 7s-7 4-10 5v-10c5-3 10-6 14-10s7-8 9-11h6v85zm12 0m41 0h-10v-66c-2 2-5 5-9 7s-7 4-10 5v-10c5-3 10-6 14-10s7-8 9-11h6v85zm20 0m4-42c0-10 1-18 3-24s5-11 9-14 9-5 14-5c4 0 8 1 11 3s6 4 8 8c2 3 3 8 5 13 1 5 2 12 2 20 0 10-1 18-3 24s-5 11-9 14-8 5-14 5c-8 0-14-3-18-9-5-7-8-18-8-34zm10 0c0 14 2 23 4 28 3 5 7 7 11 7 5 0 8-2 11-7s4-14 4-28-1-23-4-28c-3-4-7-7-12-7s-8 2-11 6c-3 5-5 15-5 28zm47 42m41 0h-10v-66c-2 2-5 5-9 7s-7 4-10 5v-10c5-3 10-6 14-10s7-8 9-11h6v85zm12 0m41-1h-10v-66c-2 2-5 5-9 7s-7 4-11 5v-10c5-3 11-6 14-10 4-4 7-8 9-12h6v85zm12 0m41-1h-10v-66c-2 2-5 5-9 7s-7 4-10 5v-10c5-3 10-6 14-10s7-8 9-12h6v85zm12 0m41 0h-10v-66c-2 2-5 5-9 7s-7 4-10 6v-10c6-3 10-6 14-10s7-8 9-11h6v85zm21 0m4-42c0-10 1-18 3-24s5-11 9-14 9-5 14-5c4 0 8 1 11 3s6 4 8 8c2 3 4 8 5 13s2 12 2 20c0 10-1 18-3 24s-5 11-9 14-8 5-14 5c-8 0-14-3-18-9-5-7-8-18-8-35zm10 0c0 14 2 23 5 28s7 7 11 7c5 0 8-2 11-7s5-14 5-28-2-23-5-28-7-7-11-7c-5 0-8 2-11 6-4 5-5 15-5 29zm47 41m41-1h-10v-66c-2 2-5 5-9 7s-7 4-10 5v-10c6-3 10-6 14-10s7-8 9-12h6v85zm21 0m4-42c0-10 1-18 3-24s5-11 9-14 9-5 14-5c4 0 8 1 11 3s6 4 8 8c2 3 3 8 5 13 1 5 2 12 2 20 0 10-1 18-3 24s-5 11-9 14-8 5-14 5c-8 0-14-3-18-9-5-7-8-18-8-35zm10 0c0 14 2 23 5 28s7 7 11 7c5 0 8-2 11-7s5-14 5-28-2-23-5-28-7-7-11-7c-5 0-8 2-11 6-3 5-5 15-5 29zm47 41m41-1h-10v-67c-2 2-6 5-9 7-4 2-7 4-10 6v-10c5-3 10-6 14-10s7-8 9-12h6v86zm21 0m4-42c0-10 1-18 3-24s5-11 9-14 9-5 14-5c4 0 8 1 11 3s6 5 8 8 4 8 5 13 2 12 2 20c0 10-1 18-3 24s-5 11-9 14-8 5-14 5c-8 0-14-3-18-9-5-7-8-18-8-35zm10 0c0 14 1 23 5 28 3 5 7 7 11 7 5 0 8-2 11-7s5-14 5-28-2-23-5-28-7-7-11-7c-5 0-8 2-11 6-4 5-5 15-5 29zm47 42m41-1h-10v-67c-2 2-6 5-9 7-4 2-7 4-10 6v-10c5-3 10-6 14-10s7-8 9-12h6v86zm20 0m5-42c0-10 1-18 3-24s5-11 9-14 9-5 14-5c4 0 8 1 11 3s6 5 8 8 4 8 5 13 2 12 2 20c0 10-1 18-3 24s-5 11-9 14-8 5-14 5c-8 0-14-3-18-9-5-7-8-19-8-35zm10 0c0 14 1 24 4 28 3 5 7 7 11 7 5 0 9-2 11-7 3-5 4-14 4-28s-2-23-4-28c-3-5-7-7-11-7-5 0-8 2-11 6-3 5-5 15-5 29zm47 42m5-42c0-10 1-18 3-24s5-11 9-14 9-5 14-5c4 0 8 1 11 3s6 4 8 8c2 3 4 8 5 13s2 12 2 20c0 10-1 18-3 24s-5 11-9 14-9 5-14 5c-8 0-14-3-18-9-5-7-8-19-8-35zm10 0c0 14 1 23 5 28 3 5 7 7 11 7s8-2 11-7 5-14 5-28-1-23-5-28c-3-5-7-7-11-7-5 0-8 2-11 6-3 5-5 15-5 29zm47 42m41-1h-10v-67c-2 3-5 5-9 7s-7 4-10 6v-10c5-3 10-6 14-10s7-8 9-12h6v86zm21 0m5-42c0-10 1-18 3-24s5-11 9-14 9-5 14-5c4 0 8 1 11 3s6 4 8 8c2 3 4 8 5 13s2 12 2 20c0 10-1 18-3 24s-5 11-9 14-9 5-15 5c-8 0-14-3-18-9-5-7-8-19-8-35zm10 0c0 14 2 23 5 28s7 7 11 7c5 0 8-2 11-7s5-14 5-28-2-23-5-28-7-7-11-7c-5 0-8 2-11 6-3 5-5 15-5 29zm47 42m41-1h-10v-67c-2 2-5 5-9 7s-7 4-10 6v-10c5-3 10-6 14-10s7-8 9-12h6v86zm21 0m5-42c0-10 1-18 3-24s5-11 9-14 9-5 14-5c4 0 8 1 11 3s6 4 8 8c2 3 3 8 5 13 1 5 2 12 2 20 0 10-1 18-3 24s-5 11-9 14-9 5-15 5c-8 0-14-3-18-9-5-7-8-18-8-35zm10 0c0 14 1 23 5 28 3 5 7 7 11 7 5 0 8-2 11-7s5-14 5-28-2-23-5-28-7-7-11-7c-5 0-8 2-11 6-4 5-5 15-5 29zm47 42m5-42c0-10 1-18 3-24s5-11 9-14 9-5 14-5c4 0 8 1 11 3s6 4 8 8c2 3 4 8 5 13s2 12 2 20c0 10-1 18-3 24s-5 11-9 14-9 5-14 5c-8 0-14-3-18-9-5-7-8-18-8-35zm10 0c0 14 2 23 5 28s7 7 11 7 8-2 11-7 5-14 5-28-1-23-5-28c-3-5-7-7-11-7s-8 2-11 6c-3 5-5 15-5 29zm47 42m41 0h-10v-67c-2 2-5 5-9 7s-7 4-10 6v-10c6-3 10-6 14-10s7-8 9-12h6v86zm12 0m41-1h-10v-66c-2 2-6 5-9 7-4 2-7 4-10 5v-10c5-3 10-6 14-10s7-8 9-12h6v85zm-1903 132m41 0h-10v-66c-3 2-6 5-10 7s-7 4-10 5v-10c6-3 10-6 14-10s7-8 9-11h6v85zm20 0m5-42c0-10 1-18 3-24s5-11 9-14 5-4 14 9c1 2 8 1 11 3s6 5 8 8 4 8 5 12c1 5 2 11 2 20s-1 17-3 23-5 10-9 14c-4 3-12 7-15 4-12-10-14-14-18-20-5-7-8-18-8-34zm10 0c0 14 1 23 4 28s2 2 11 18c1 2 9-2 11-6 3-4 5-13 5-27 0-13-2-22-5-27-3-4-10-5-11-7-9-17-8-12-11-8-3 5-5 15-5 28zm47 54m5-40c0-10 1-18 3-23 2-6 5-10 9-14 4-3 8-5 14-5 4 0 8 1 11 3s6 5 8 8 4 8 5 12c1 5 2 11 2 20s-1 17-3 23-5 11-9 14-9 5-15 4c-8 0-14-3-18-9-5-7-8-18-8-33zm10 0c0 13 1 22 4 27 3 4 7 7 11 7s8-2 11-6c3-5 5-13 5-27 0-13-2-22-5-27-3-4-7-7-11-7-5 0-8 2-11 6-3 5-5 14-5 28zm47 41m5-40c0-10 1-17 3-23s5-11 9-14 9-5 14-5c4 0 8 1 11 3s6 5 8 8 4 8 5 12c1 5 2 11 2 20 0 10-1 17-3 23s-5 11-9 14-9 5-15 5c-8 0-14-3-18-9-5-7-8-18-8-33zm10 0c0 14 1 23 4 27s7 7 11 7 8-2 11-6c3-5 5-13 5-27s-2-23-5-27-7-7-12-7c-4 0-8 2-11 6-4 5-5 14-5 28zm47 41m5-41c0-10 1-18 3-23 2-6 5-11 9-14s8-5 14-5c4 0 8 1 11 3 4 2 6 5 8 8s4 8 5 12c1 5 2 11 2 20 0 10-1 17-3 24-2 6-5 11-9 14s-9 5-15 5c-8 0-14-3-18-9-5-7-8-18-8-34zm10 0c0 14 1 23 4 27s7 7 11 7c5 0 8-2 11-7s5-13 5-27-2-23-5-27-7-7-11-7c-5 0-8 2-11 6-3 5-5 14-5 28zm47 41m5-41c0-10 1-18 3-24s5-11 9-14 8-5 14-5c4 0 8 1 11 3s6 5 8 8 4 7 5 12 2 12 2 20c0 10-1 17-3 24-2 6-5 11-9 14s-9 5-15 5c-8 0-14-3-18-9-5-7-8-18-8-34zm10 0c0 14 1 23 4 27s7 7 11 7 8-2 11-7 5-13 5-27-2-23-5-27-7-7-12-7c-4 0-8 2-11 6-3 5-5 14-5 28zm47 41m41 0h-10v-65c-3 2-6 5-9 7-4 2-7 4-10 6v-10c6-3 10-6 14-10s7-7 9-11h6v84zm20 0m5-41c0-10 1-18 3-24s5-11 9-14 9-5 14-5c4 0 8 1 11 3s6 5 8 8 4 8 5 12c1 5 2 12 2 20 0 10-1 18-3 24s-5 11-9 14-9 5-15 5c-8 0-14-3-18-9-5-7-8-18-8-34zm10 0c0 14 1 23 4 27 3 5 7 7 11 7 5 0 8-2 11-7s5-14 5-27c0-14-2-23-5-27s-7-7-11-7c-5 0-8 2-11 6-3 5-5 15-5 28zm47 41m41 0h-10v-66c-2 2-5 5-9 7s-7 4-10 5v-10c6-3 10-6 14-10s7-7 9-11h6v84zm20 0m5-41c0-10 1-18 3-24s5-11 9-14 9-5 14-5c4 0 8 1 11 2 3 2 6 5 8 8s4 8 5 12c1 5 2 12 2 20 0 10-1 18-3 24s-5 11-9 14-9 5-14 5c-8 0-14-3-18-9-5-7-8-18-8-34zm10 0c0 14 1 23 4 27 3 5 7 7 11 7s8-2 11-7 5-14 5-27c0-14-2-23-5-28-3-4-7-7-11-7s-8 2-11 6c-3 5-5 15-5 29zm47 41m41 0h-10v-66c-2 2-5 5-9 7s-7 4-10 5v-10c6-3 10-6 14-10s7-8 9-11h6v85zm20 0m5-41c0-10 1-18 3-24s5-11 9-14 9-5 14-5c4 0 8 1 11 3s6 5 8 8 4 8 5 12c1 5 2 12 2 20 0 10-1 18-3 24s-5 11-9 14-9 5-14 5c-8 0-14-3-18-9-5-7-8-18-8-34zm10 0c0 14 1 23 4 28s7 7 11 7 8-2 11-7 5-14 5-28-2-23-5-28-7-7-11-7-8 2-11 6c-3 6-5 15-5 29zm47 41m41 0h-10v-66c-2 2-5 5-9 7s-7 4-10 6v-10c6-3 10-6 14-10s7-7 9-11h6v85zm20 0m5-42c0-10 1-18 3-24s5-11 9-14 9-5 14-5c4 0 8 1 11 3s6 5 8 8 4 8 5 12c1 5 2 12 2 20 0 10-1 18-3 24s-5 11-8 14c-4 3-9 5-15 5-8 0-14-3-18-9-5-7-8-18-8-34zm10 0c0 14 1 23 4 28 3 4 7 7 11 7 5 0 8-2 11-7s5-14 5-28-2-23-5-28-7-7-11-7c-5 0-9 2-11 6-3 5-5 15-5 29zm47 41m5-42c0-10 1-18 3-24s5-11 9-14 8-5 14-5c4 0 8 1 11 3s6 4 8 8c2 3 4 8 5 12 1 5 2 12 2 20 0 10-1 18-3 24s-5 11-9 14-9 5-14 5c-8 0-14-3-18-9-5-7-8-18-8-34zm10 0c0 14 1 23 5 28 3 5 7 7 11 7s8-2 11-7 5-14 5-28-2-23-5-28-7-7-12-7c-4 0-8 2-11 6-3 5-5 15-5 29zm47 41m41-1h-10v-66c-2 2-6 5-9 7-4 2-7 5-10 6v-10c5-3 10-6 14-10s7-8 9-12h6v85zm20 0m5-42c0-10 1-18 3-24s5-11 9-14 8-5 14-5c4 0 8 1 11 3s6 4 8 8c2 3 4 8 5 13s2 12 2 20c0 10-1 18-3 24s-5 11-9 14-9 5-14 5c-8 0-14-3-18-9-5-7-8-18-8-34zm10 0c0 14 2 23 5 28s7 7 11 7 8-2 11-7 5-14 5-28-2-23-5-28-7-7-12-7c-4 0-8 2-11 6-3 5-5 15-5 29zm47 41m41 0h-10v-67c-2 2-6 5-9 7-4 2-7 5-10 6v-10c5-3 10-6 14-10s7-8 9-12h6v85zm20 0m5-42c0-10 1-18 3-24s5-11 9-14c4-4 8-5 14-5 4 0 8 1 11 3s6 4 8 8c2 3 4 8 5 13s2 12 2 20c0 10-1 18-3 24s-5 11-9 14-9 5-14 5c-8 0-14-3-18-9-5-7-8-18-8-34zm10 0c0 14 1 23 5 28 3 5 7 7 11 7s8-2 11-7 5-14 5-28-2-23-5-28-7-7-12-7c-4 0-8 2-11 6-3 5-5 15-5 29zm47 42m41-1h-10v-67c-2 3-6 5-9 7-4 2-7 4-10 6v-10c6-3 10-6 14-10s7-8 9-12h6v86zm20 0m5-42c0-10 1-18 3-24s5-11 9-14 8-5 14-5c4 0 8 1 11 3s6 4 8 8c2 3 4 8 5 12 1 5 2 12 2 20 0 10-1 18-3 24s-5 11-9 14-9 5-14 5c-8 0-14-3-18-9-5-7-8-18-8-35zm10 0c0 14 1 23 5 28 3 5 7 7 11 7s8-2 11-7 5-14 5-28-2-23-5-28-7-7-12-7c-4 0-8 2-11 6-3 5-5 15-5 29zm47 42m5-42c0-10 1-18 3-24s5-11 9-14 9-5 14-5c4 0 8 1 11 3s6 5 8 8 3 8 5 12c1 5 2 12 2 20 0 10-1 18-3 24s-5 11-9 14-9 5-15 5c-8 0-14-3-18-9-5-7-8-19-8-35zm10 0c0 14 1 23 4 28s7 7 11 7c5 0 8-2 11-7s5-14 5-28-2-23-5-28c-3-4-7-7-11-7-5 0-8 2-11 6-3 5-5 15-5 29zm47 42m41 0h-10v-67c-2 2-6 5-9 7-4 2-7 4-10 6v-10c5-3 10-6 14-10s7-8 9-12h6v86zm20-1m5-42c0-10 1-18 3-24s5-11 9-14 9-5 15-5c4 0 8 1 11 3s6 5 8 8 4 8 5 12c1 5 2 12 2 20 0 10-1 18-3 24s-5 11-9 14-9 5-14 5c-8 0-14-3-18-9-5-7-8-19-8-35zm10 0c0 14 1 23 5 28 3 5 7 7 11 7s8-2 11-7 5-14 5-28-2-23-5-28-7-7-11-7-8 2-11 6c-4 5-5 15-5 29zm47 42m41-1h-10v-67c-2 2-6 5-9 7-4 2-7 4-10 6v-10c5-3 10-6 14-10s7-8 9-12h6v86zm20-1m5-42c0-10 1-18 3-24s5-11 9-14 8-5 14-5c4 0 8 1 11 3s6 5 8 8 4 8 5 13 2 12 2 20c0 10-1 18-3 24s-5 11-9 14-9 5-14 5c-8 0-14-3-18-9-5-7-8-19-8-35zm10 0c0 14 2 24 5 28 3 5 7 7 11 7s8-2 11-7 5-14 5-28-1-23-5-28c-3-5-7-7-11-7s-8 2-11 6c-4 5-5 15-5 29zm47 42m5-42c0-10 1-18 3-24s5-11 9-14 9-5 14-5c4 0 8 1 11 3s6 4 8 8c2 3 4 8 5 13s2 12 2 20c0 10-1 18-3 24s-5 11-9 14-9 5-15 5c-8 0-14-3-18-9-5-7-8-19-8-35zm10 0c0 14 1 23 5 28 3 5 7 7 11 7 5 0 8-3 11-7 3-5 5-14 5-28s-2-23-5-28-7-7-11-7c-5 0-8 2-11 6-3 5-5 15-5 29zm47 42m5-42c0-10 1-18 3-24s5-11 9-14 9-5 14-5c4 0 8 1 11 2 3 2 6 5 8 8s4 8 5 13 2 12 2 20c0 10-1 18-3 24s-5 11-9 14-9 5-14 5c-8 0-14-3-18-9-5-7-8-18-8-35zm10 0c0 14 2 23 5 28s7 7 11 7 8-2 11-7 5-14 5-28-2-23-5-28-7-7-11-7-8 2-11 6c-3 5-5 15-5 29zm47 41m5-42c0-10 1-18 3-24s5-11 9-14 9-5 14-5c4 0 8 1 11 3s6 4 8 8 4 8 5 13 2 12 2 20c0 10-1 18-3 24s-5 11-9 14-9 5-15 5c-8 0-14-3-18-9-5-7-8-18-8-35zm10 0c0 14 1 23 5 28 3 5 7 7 11 7 5 0 8-2 11-7s5-14 5-28-2-23-5-28-7-7-11-7c-5 0-8 2-11 6-3 5-5 15-5 29zm47 41m5-42c0-10 1-18 3-24s5-11 9-14 9-5 14-5c4 0 8 1 11 3s6 5 8 8 4 8 5 13 2 12 2 20c0 10-1 18-3 24s-5 11-9 14-9 5-14 5c-8 0-14-3-18-9-5-7-8-19-8-35zm10 0c0 14 2 23 5 28s7 7 11 7 8-2 11-7 5-14 5-28-1-23-5-28c-3-4-7-7-11-7s-8 2-11 6c-3 5-5 15-5 29zm47 41m5-42c0-10 1-18 3-24s5-11 9-14 9-5 14-5c4 0 8 1 11 3s6 4 8 8 4 8 5 13 2 12 2 20c0 10-1 18-3 24s-5 11-9 14-9 5-15 5c-8 0-14-3-18-9-5-7-8-18-8-35zm10 0c0 14 2 23 5 28s7 7 11 7c5 0 8-2 11-7s5-14 5-28-2-23-5-28c-3-4-7-7-11-7-5 0-8 2-11 6-3 5-5 15-5 29zm-1873 174m4-42c0-10 1-18 3-24s5-11 9-14 9-5 14-5c4 0 8 1 11 3s6 4 8 8c2 3 4 7 5 12s2 12 2 20c0 10-1 18-3 24s-5 11-9 14-9 5-14 5c-8 0-14-3-18-9-5-7-8-18-8-35zm10 0c0 14 1 23 5 28 3 5 7 7 11 7s8-2 11-7 5-14 5-28-1-23-5-28c-3-5-7-7-11-7s-8 2-11 6c-3 5-5 15-5 29zm47 41m5-42c0-10 1-18 3-24s5-11 9-15c4-3 5-5 14 5 2 2 8 1 11 3s6 5 8 8 3 7 5 12c1 5 2 11 2 19 0 10-1 17-3 23s-5 10-9 13-11 6-15 4c-11-6-14-9-18-15-5-7-8-18-8-34zm10-1c0 14 1 23 4 28 3 4 3 0 11 14 1 2 8-2 11-6s5-13 5-27c0-13-2-22-5-27s-10-5-11-7c-9-15-8-7-11-3-3 5-5 15-5 29zm47 49m5-40c0-10 1-18 3-23 2-6 5-10 9-13s9-5 14-4c4 0 8 1 11 3s6 4 8 8c2 3 4 7 5 12s2 11 2 20c0 10-1 17-3 23s-5 10-9 14c-4 3-9 5-14 5-8 0-14-3-18-9-5-7-8-18-8-33zm10 0c0 13 1 23 5 27 3 5 7 7 11 7s8-2 11-6 5-13 5-27-1-23-5-27c-3-5-7-7-11-7-5 0-8 2-11 6-3 5-5 14-5 27zm47 42m41 1h-10v-64c-2 2-6 5-9 7-4 2-7 4-10 5v-10c6-3 11-6 14-9 4-4 7-7 9-11h6v83zm21 1m5-40c0-10 1-18 3-24s5-11 9-14 9-5 14-5c4 0 8 1 11 3s6 4 8 8c2 3 4 7 5 12s2 11 2 20c0 10-1 18-3 24s-5 10-9 14c-4 3-9 5-15 5-8 0-13-3-18-9-5-7-8-18-8-34zm10 0c0 14 1 23 5 27 3 4 7 7 11 7 5 0 8-2 11-7 3-4 5-13 5-27s-1-23-5-27c-3-4-7-7-11-7-5 0-8 2-11 6-3 5-5 14-5 28zm47 42m41 1h-10v-65c-2 2-6 5-9 7-4 2-7 4-10 5v-10c6-3 10-6 14-10s7-7 9-11h6v83zm21 0m5-41c0-10 1-18 3-24s5-11 9-14 9-5 14-5c4 0 8 1 11 3s6 4 8 8c2 3 4 7 5 12s2 11 2 20c0 10-1 18-3 24s-5 11-9 14-9 5-15 5c-8 0-14-3-18-9-5-7-8-18-8-34zm10 0c0 14 2 23 5 27 3 5 7 7 11 7 5 0 8-2 11-7s5-14 5-27c0-14-2-23-5-27-3-5-7-7-11-7-5 0-8 2-11 6-3 5-5 14-5 28zm47 41m41 0h-10v-65c-2 2-6 5-9 7-4 2-7 4-10 5v-10c5-3 10-6 14-10s7-8 9-11h6v84zm21 0m5-41c0-10 1-18 3-24s5-11 9-14 9-5 14-5c4 0 8 1 11 3s6 4 8 8c2 3 4 7 5 12s2 11 2 20c0 10-1 18-3 24s-5 11-9 14-9 5-15 5c-8 0-14-3-18-9-5-7-8-18-8-34zm10 0c0 14 2 23 5 28s7 7 11 7c5 0 8-2 11-7s5-14 5-27c0-14-2-23-5-28s-7-7-11-7c-5 0-8 2-11 6-4 5-5 14-5 28zm47 42m5-41c0-10 1-18 3-24s5-11 9-14 9-5 14-5c4 0 8 1 11 3s6 4 8 8c2 3 4 8 5 13s2 12 2 20c0 10-1 18-3 24s-5 11-9 14-9 5-14 5c-8 0-14-3-18-9-5-7-8-18-8-34zm10 0c0 14 2 23 5 28s7 7 11 7 8-2 11-7 5-14 5-28-2-23-5-28c-3-4-7-7-11-7s-8 2-11 6c-3 5-5 15-5 28zm47 42m41 0h-10v-66c-2 2-5 5-9 7s-7 4-10 5v-10c6-3 10-6 14-10s7-8 9-11h6v84zm12 0m41 0h-10v-66c-2 3-6 5-9 7-4 2-7 4-10 5v-10c5-3 10-6 14-10s7-7 9-11h6v85zm20 0m5-42c0-10 1-18 3-24s5-11 9-14 9-5 14-5c4 0 8 1 11 3s6 4 8 8c2 3 4 7 5 12s2 12 2 20c0 10-1 18-3 24s-5 11-9 14-9 5-15 5c-8 0-14-3-18-9-5-7-8-18-8-34zm10 0c0 14 2 23 5 28s7 7 11 7c5 0 8-2 11-7 3-4 5-14 5-28s-1-23-5-28c-3-4-7-7-11-7s-8 2-11 6c-4 5-5 15-5 29zm47 42m5-42c0-10 1-18 3-24s5-11 9-14 9-5 14-5c4 0 8 1 11 3s6 4 8 8 4 8 5 13 2 12 2 20c0 10-1 18-3 24s-5 11-8 14c-4 3-9 5-15 5-8 0-14-3-18-9-5-7-8-18-8-34zm10 0c0 14 2 23 5 28s7 7 11 7c5 0 8-2 11-7s5-14 5-28-2-23-5-28-7-7-11-7c-5 0-8 2-11 6-3 5-5 15-5 29zm47 41m41 0h-10v-66c-2 2-5 5-9 7s-7 4-10 5v-10c6-3 10-6 14-10s7-8 9-12h6v85zm20 0m5-42c0-10 1-18 3-24s5-11 9-14 9-5 14-5c4 0 8 1 11 3s6 4 8 8c2 3 4 7 5 13 1 5 2 12 2 20 0 10-1 18-3 24s-5 11-9 14-9 5-15 5c-8 0-14-3-18-9-5-7-8-18-8-34zm10 0c0 14 2 23 5 28s7 7 11 7c5 0 8-2 11-7s5-14 5-28-2-23-5-28-7-7-11-7c-5 0-8 2-11 6-3 5-5 15-5 29zm47 42m41 0h-10v-66c-2 2-6 5-9 7-4 3-7 4-10 5v-10c6-3 11-6 14-10 4-4 7-8 9-12h6v85zm20 0m5-42c0-10 1-18 3-24s5-11 9-14 9-5 14-5 8 1 11 3 6 4 8 8c2 3 4 8 5 13s2 12 2 20c0 10-1 18-3 24s-5 11-9 14-9 5-15 5c-8 0-14-3-18-9-5-7-8-19-8-35zm10 0c0 14 2 23 5 28 3 4 7 7 11 7 5 0 8-2 11-7s5-14 5-28-2-24-5-28c-3-5-7-7-11-7-5 0-8 2-11 6-3 5-5 15-5 29zm47 42m5-42c0-10 1-18 3-24s5-11 9-14 9-5 14-5c4 0 8 1 11 3s6 4 8 8c2 3 4 7 5 13 1 5 2 12 2 20 0 10-1 18-3 24s-5 11-9 14-9 5-14 5c-8 0-14-3-18-9-5-7-8-19-8-35zm10 0c0 14 2 23 5 28s7 7 11 7 8-2 11-7 5-14 5-28-1-23-5-28c-3-5-7-7-11-7s-8 2-11 6c-3 5-5 15-5 29zm47 42m41 0h-10v-67c-2 3-5 5-9 7-4 3-7 4-10 6v-10c5-3 10-6 14-10s7-8 9-12h6v85zm20 0m5-42c0-10 1-18 3-24s5-11 9-14 9-5 14-5c4 0 8 1 11 3s6 4 8 8c2 3 4 7 5 13 1 5 2 12 2 20 0 10-1 18-3 24s-5 11-9 14-9 5-14 5c-8 0-14-3-18-9-5-7-8-18-8-35zm10 0c0 14 2 24 5 28 3 5 7 7 11 7s8-2 11-7 5-14 5-28-2-23-5-28-7-7-12-7c-4 0-8 2-11 6-3 5-5 15-5 29zm47 42m5-42c0-10 1-18 3-24s5-11 9-14 9-5 14-5c4 0 8 1 11 3s6 4 8 8 4 8 5 12c1 5 2 12 2 20 0 10-1 18-3 24s-5 11-9 14-9 5-14 5c-8 0-14-3-18-9-5-7-8-19-8-35zm10 0c0 14 2 23 5 28 3 4 7 7 11 7 5 0 8-2 11-7s5-14 5-28-2-24-5-28c-3-5-7-7-11-7-5 0-8 2-11 6-3 5-5 15-5 29zm47 41m41 0h-10v-67c-3 2-6 5-9 7-4 2-7 4-10 6v-10c5-3 10-6 14-10s7-8 9-12h6v86zm20 0m5-42c0-10 1-18 3-24s5-11 9-14 9-5 15-5c4 0 8 1 11 3s6 4 8 8 4 8 5 13 2 12 2 20c0 10-1 18-3 24s-5 11-9 14-9 5-14 5c-8 0-14-3-18-9-5-7-8-18-8-35zm10 0c0 14 2 23 5 28 3 4 7 7 11 7s8-2 11-7 5-14 5-28-2-24-5-28c-3-5-7-7-11-7s-8 2-11 6c-3 5-5 15-5 29zm47 42m41-1h-10v-67c-3 2-6 5-9 7-4 2-7 4-10 6v-10c5-3 10-6 14-10s7-8 9-12h6v86zm20 0m5-42c0-10 1-18 3-24s5-11 9-14 8-5 14-5c4 0 8 1 11 3s6 4 8 8 4 8 5 13 2 12 2 20c0 10-1 18-3 24s-5 11-9 14-9 5-14 5c-8 0-14-3-18-9-5-7-8-18-8-35zm10 0c0 14 2 23 5 28 3 4 7 7 11 7s8-2 11-7 5-14 5-28-2-24-5-28c-3-5-7-7-11-7s-8 2-11 6c-3 5-5 15-5 29zm47 41m41-1h-10v-67c-2 2-5 5-9 7s-7 4-10 5v-10c5-3 10-6 14-10s7-8 9-12h6v86zm20 0m5-42c0-10 1-18 3-24s5-11 9-14 9-5 14-5c4 0 8 1 11 3s6 4 8 8 4 8 5 13 2 12 2 20c0 10-1 18-3 24s-5 11-9 14-9 5-14 5c-8 0-14-3-18-8-5-7-8-19-8-35zm10 0c0 14 2 23 5 28s7 7 11 7 8-2 11-7 5-14 5-28-2-24-5-28c-3-5-7-7-11-7s-8 2-11 6c-3 5-5 15-5 29zm47 41m41-1h-10v-67c-2 2-6 5-9 7-4 3-7 4-10 6v-10c6-3 10-6 14-10s7-8 9-12h6v86zm20 0m5-42c0-10 1-18 3-24s5-11 9-14 9-5 14-5c4 0 8 1 11 3s6 4 8 8 4 8 5 13 2 12 2 20c0 10-1 18-3 24s-5 11-9 14-9 5-14 5c-8 0-14-3-18-9-5-7-8-18-8-35zm10 0c0 14 1 23 5 28 3 4 7 7 11 7s8-2 11-7 5-14 5-28-1-23-5-28c-3-5-7-7-11-7s-8 2-11 6c-3 5-5 15-5 29zm47 41m41-1h-10v-66c-2 2-5 5-9 7s-7 4-10 6v-10c6-3 10-6 14-10s7-8 9-12h6v85zm-1891 132m4-42c0-10 1-18 3-24s5-11 9-14 9-5 14-5c4 0 8 1 11 3s6 5 8 8 4 8 5 13 2 12 2 20c0 10-1 18-3 24s-5 11-9 14-9 5-14 5c-8 0-14-3-18-9-5-7-8-19-8-35zm10 0c0 14 1 23 5 28 3 5 7 7 11 7s8-3 11-7c3-5 5-14 5-28s-1-23-5-28c-3-5-7-7-11-7s-8 2-11 6c-3 5-5 15-5 29zm47 41m41 1l-10-1v-64c-2 2-3-8-9 2-2 3-7 5-10 7v-10c6-3-7-12 14-19 17-5 7 6 9 2h6v82zm21 1m5-40c0-10 1-18 3-23 2-6 5-10 9-13s9-4 14-4c4 0 8 1 11 3s6 4 8 8c2 3 4 8 5 13s2 11 2 19c0 10-1 17-3 23s-5 10-9 14c-4 3-9 4-14 4-8 0-14-3-18-9-5-7-8-18-8-34zm10 0c0 13 1 22 5 27 3 5 7 7 11 7s8-2 11-6 5-13 5-27c0-13-1-22-5-27-3-5-7-7-11-7-5 0-8 2-11 5-3 5-5 14-5 27zm47 42m41 1h-10v-65c-2 2-5 5-9 7s-7 4-10 5v-10c6-2 11-6 14-9 4-4 7-7 9-11h6v83zm21 1m5-41c0-10 1-18 3-24s5-10 9-14c4-3 9-5 14-5 4 0 8 1 11 3s6 5 8 8 4 7 5 12 2 11 2 20c0 10-1 18-3 23-2 6-5 11-9 14s-9 5-15 5c-8 0-13-3-18-9-5-7-8-18-8-34zm10 0c0 14 2 23 5 27 3 5 7 7 11 7 5 0 8-2 11-7 3-4 5-13 5-27s-2-23-5-27c-3-5-7-7-11-7-5 0-8 2-11 6-3 5-5 14-5 28zm47 42m5-41c0-10 1-18 3-24s5-10 9-14c4-3 8-5 14-5 4 0 8 1 11 3s6 5 8 8 4 7 5 13c1 5 2 11 2 20 0 10-1 18-3 24s-5 11-9 14-9 5-14 5c-8 0-14-3-18-9-5-7-8-18-8-34zm10 0c0 14 2 23 5 27 3 5 7 7 11 7s8-2 11-7c3-4 5-13 5-27s-2-23-5-27-7-7-12-7c-4 0-8 2-11 6-3 5-5 14-5 28zm47 42m41 1h-10v-65c-2 2-5 5-9 7s-7 4-10 5v-10c5-3 10-6 14-9 4-4 7-8 9-11h6v84zm12 0m41 0h-10v-65c-2 2-5 5-9 7s-7 4-10 5v-10c6-2 10-6 14-9 4-4 7-8 9-11h6v84zm12 0m41 1h-10v-65c-2 2-5 5-9 7s-7 4-10 5v-10c5-3 10-6 14-10s7-8 9-11h6v84zm12 0m41 0h-10v-66c-2 2-5 4-9 7-4 2-7 4-10 5v-10c5-3 10-6 14-10s7-8 9-11h6v84zm20 0m5-41c0-10 1-18 3-24s5-11 9-14 9-5 14-5c4 0 8 1 11 3s6 5 8 8 3 8 5 13c1 5 2 12 2 20 0 10-1 18-3 24s-5 11-9 14-9 5-15 5c-8 0-14-3-18-9-5-7-8-19-8-34zm10 0c0 14 2 23 5 28s7 7 11 7c5 0 8-2 11-7s5-14 5-28-2-23-5-28-7-7-11-7c-5 0-8 2-11 6-3 5-5 14-5 28zm47 42m41 0h-10v-66c-3 2-5 5-9 7s-7 4-10 5v-10c5-3 10-6 14-10s7-8 9-11h6v85zm20 0m5-42c0-10 1-18 3-24s5-11 9-14 9-5 14-5 8 1 11 3 6 5 8 8c2 4 4 8 5 13s2 12 2 20c0 10-1 18-3 24s-5 11-9 14-9 5-15 5c-8 0-14-3-18-9-5-7-8-19-8-34zm10 0c0 14 2 23 4 28 3 5 7 7 11 7 5 0 9-2 12-7s4-14 4-28-1-23-4-28c-3-4-7-7-12-7s-8 2-11 6c-3 5-5 14-5 28zm47 42m5-42c0-10 1-18 3-24s5-11 9-14 9-5 14-5c4 0 8 1 11 3s6 4 8 8c2 3 4 7 5 13 1 5 2 12 2 20 0 10-1 18-3 24s-5 11-9 14-9 5-14 5c-8 0-14-3-18-9-5-7-8-19-8-35zm10 0c0 14 2 23 5 28s7 7 11 7 8-2 11-7 5-14 5-28-2-23-5-28-7-7-11-7c-5 0-8 2-11 6-3 5-5 15-5 29zm47 42m41 0h-10v-66c-2 3-5 5-9 7s-7 4-10 5v-10c5-3 10-6 14-10s7-8 9-11h6v85zm21 0m5-42c0-10 1-18 3-24s5-11 9-14 9-5 14-5c4 0 8 1 11 3s6 4 8 8c2 3 4 8 5 13s2 12 2 20c0 10-1 18-3 24s-5 11-9 14-9 5-15 5c-8 0-14-3-18-9-5-7-8-19-8-34zm10 0c0 14 2 23 5 28s7 7 11 7c5 0 8-2 11-7s5-14 5-28-2-23-5-28-7-7-11-7c-5 0-8 2-11 6-3 5-5 15-5 29zm47 42m41 0h-10v-66c-2 3-5 5-9 7s-7 4-10 5v-10c5-3 10-6 14-10s7-8 9-11h6v85zm21 0m5-42c0-10 1-18 3-24s5-11 9-14 9-5 14-5c4 0 8 1 11 3s6 5 8 8 4 8 5 13 2 12 2 20c0 10-1 18-3 24s-5 11-9 14-9 5-15 5c-8 0-14-3-18-9-5-7-8-19-8-35zm10 0c0 14 1 23 5 28 3 5 7 7 11 7 5 0 8-2 11-7s5-14 5-28-2-23-5-28-7-7-11-7c-5 0-8 2-11 6-3 5-5 15-5 29zm47 42m5-42c0-10 1-18 3-24s5-11 9-14 9-5 14-5c4 0 8 1 11 3s6 5 8 8 4 8 5 13 2 12 2 20c0 10-1 18-3 24s-5 11-9 14-9 5-14 5c-8 0-14-3-18-9-5-7-8-19-8-35zm10 0c0 14 2 23 5 28s7 7 11 7 8-2 11-7 5-14 5-28-2-24-5-28c-3-5-7-7-11-7s-8 2-11 6c-3 5-5 15-5 29zm47 42m41 0h-10v-67c-2 2-5 5-9 7s-7 4-10 5v-10c6-3 10-6 14-10s7-8 9-12h6v85zm20 0m5-42c0-10 1-18 3-24s5-11 9-14 9-5 14-5c4 0 8 1 11 3s6 4 8 8 4 8 5 13 2 12 2 20c0 10-1 18-3 24s-5 11-9 14-9 5-14 5c-8 0-14-3-18-9-5-7-8-19-8-35zm10 0c0 14 2 23 5 28s7 7 11 7 8-3 11-7c3-5 5-14 5-28s-2-24-5-28c-3-5-7-7-11-7s-8 2-11 6c-3 5-5 15-5 29zm47 42m41 0h-10v-67c-2 2-5 5-9 7s-7 4-10 5v-10c6-3 10-6 14-10s7-8 9-12h6v86zm20 0m5-42c0-10 1-18 3-24s5-11 9-14 9-5 14-5c4 0 8 1 11 2 3 2 6 5 8 8s4 8 5 13 2 12 2 20c0 10-1 18-3 24s-5 11-9 14-9 5-14 5c-8 0-14-3-18-9-5-7-8-19-8-35zm10 0c0 14 2 23 5 28s7 7 11 7 8-3 11-7c3-5 5-14 5-28s-2-24-5-28c-3-5-7-7-11-7s-8 2-11 6c-3 5-5 15-5 29zm47 42m41-1h-10v-67c-2 2-5 5-9 7s-7 4-10 6v-10c6-3 11-6 14-10 4-4 7-8 9-12h6v86zm20 0m5-42c0-10 1-18 3-24s5-11 9-14 9-5 14-5c4 0 8 1 11 2 3 2 6 5 8 8 2 4 4 8 5 13s2 12 2 20c0 10-1 18-3 24s-5 11-9 14-9 5-14 5c-8 0-14-3-18-9-5-7-8-19-8-35zm10 0c0 14 2 23 5 28s7 7 11 7c5 0 8-3 11-7 3-5 5-14 5-28s-1-23-5-28c-3-5-7-7-11-7-5 0-8 2-11 6-3 5-5 15-5 29zm47 42m41-1h-10v-67c-2 2-5 5-9 7s-7 4-10 5v-10c6-3 10-6 14-10s7-8 9-12h6v86zm20 0m5-42c0-10 1-18 3-24s5-11 9-14 9-5 14-5c4 0 8 1 11 2 3 2 6 4 8 8 2 3 4 8 5 13s2 12 2 20c0 10-1 18-3 24s-5 11-9 14-9 5-15 5c-8 0-14-3-18-9-5-7-8-19-8-35zm10 0c0 14 2 23 5 28s7 7 11 7c5 0 8-3 11-7 3-5 5-14 5-28s-2-23-5-28-7-7-11-7c-5 0-8 2-11 6-3 5-5 15-5 29zm47 42m41-1h-10v-67c-2 3-5 5-9 7-4 3-7 4-10 6v-10c6-3 10-6 14-10s7-8 9-12h6v86zm12 0m41-1h-10v-67c-2 3-5 5-9 8-4 2-7 4-10 6v-10c5-3 10-6 14-10s7-8 9-12h6v86zm12 0m41-1h-10v-67c-2 2-5 5-9 7s-7 4-10 6v-10c6-3 10-6 14-10s7-8 9-12h6v85zm12 0m41-1h-10v-67c-2 2-5 5-9 7-4 3-7 4-10 6v-10c6-3 10-6 14-10s7-8 9-12h6v85zm12 0m41-1h-10v-66c-2 2-6 5-9 7-4 2-7 4-10 6v-10c5-3 10-6 14-10s7-8 9-12h6v85zm-1903 132m41 0h-10v-66c-3 2-6 5-9 7-4 3-7 4-10 6v-10c5-3 10-6 14-10s7-8 9-11h6v85zm20-1m5-42c0-10 1-18 3-24s5-11 9-15 8-6 14-4c4 1 8 1 11 3s6 5 8 8 4 8 5 12c1 5 2 11 2 19 0 10-1 17-3 23s-5 10-9 13-9 4-15 4c-8 0-14 0-18-6-6-7-8-18-8-34zm10-1c0 14 1 23 4 27s3-4 11 5c2 2 9-2 11-6 3-4 5-13 5-26 0-14-2-22-5-27s-10-5-11-7c-9-10-8 1-11 5-4 6-5 16-5 29zm47 41m41 2h-10v-64l-9 6c-4 2-7 4-10 5v-10c5-2 10-5 14-9 4-3 7-7 9-10h6v82zm20 1m5-40c0-10 1-17 3-23s5-10 9-13 9-5 14-4c4 0 8 1 11 3s6 5 8 8 4 8 5 13 2 11 2 20c0 10-1 17-3 23s-5 10-9 14c-4 3-9 4-14 4-8 0-14-3-18-9-5-7-8-18-8-34zm10 1c0 13 2 23 5 27 3 5 7 7 11 7s8-2 11-6 5-13 5-27-2-23-5-27-7-7-12-7c-4 0-8 2-11 6-3 5-5 14-5 28zm47 43m41 1h-10v-65c-2 2-6 5-9 7-4 2-7 4-10 5v-10c5-2 10-6 14-9 4-4 7-7 9-11h6v83zm20 1m5-41c0-10 1-18 3-24s5-11 9-14 8-5 14-5c4 0 8 1 11 3s6 5 8 8 4 8 5 13 2 12 2 20c0 10-1 17-3 23s-5 10-9 14c-4 3-9 5-14 4-8 0-14-3-18-9-5-7-8-18-8-34zm10 0c0 14 2 23 5 27 3 5 7 7 11 7s8-2 11-6 5-13 5-27-2-23-5-27-7-7-12-7c-4 0-8 2-11 6-3 5-5 14-5 28zm47 42m5-41c0-10 1-18 3-24s5-11 9-14 9-5 14-5c4 0 8 1 11 3s6 4 8 8c2 3 4 8 5 12 1 5 2 12 2 20 0 10-1 18-3 24s-5 10-9 14c-4 3-9 5-15 5-8 0-14-3-18-9-5-7-8-18-8-34zm10 0c0 14 2 23 5 27 3 5 7 7 11 7 5 0 8-2 11-6 3-5 5-14 5-27 0-14-2-23-5-27-3-5-7-7-11-7-5 0-8 2-11 6-4 5-5 14-5 28zm47 42m5-41c0-10 1-18 3-24s5-11 9-14 9-5 14-5c4 0 8 1 11 3s6 5 8 8 4 8 5 13 2 12 2 20c0 10-1 18-3 24s-5 11-9 14-9 5-14 5c-8 0-14-3-18-9-5-7-8-18-8-34zm10 0c0 14 2 23 5 27 3 5 7 7 11 7 5 0 8-2 11-7s5-14 5-27c0-14-2-23-5-27-3-5-7-7-11-7-5 0-8 2-11 6-3 5-5 14-5 28zm47 42m5-41c0-10 1-18 3-24s5-11 9-14 9-5 14-5c4 0 8 1 11 3s6 4 8 8c2 3 4 8 5 13s2 11 2 20c0 10-1 18-3 24s-5 11-9 14-9 5-15 5c-8 0-14-3-18-9-5-7-8-18-8-34zm10 0c0 14 2 23 5 28s7 7 11 7c5 0 8-2 11-7s5-14 5-27c0-14-2-23-5-28s-7-7-11-7c-5 0-8 2-11 6-4 5-5 14-5 28zm47 42m5-41c0-10 1-18 3-24s5-11 9-14 9-5 14-5c4 0 8 1 11 3s6 5 8 8 4 8 5 13 2 12 2 20c0 10-1 18-3 24s-5 11-9 14-9 5-14 5c-8 0-14-3-18-9-5-7-8-18-8-34zm10 0c0 14 2 23 5 28s7 7 11 7 8-2 11-7 5-14 5-27c0-14-2-23-5-28s-7-7-11-7-8 2-11 6c-3 5-5 15-5 28zm47 42m41 0h-10v-66c-2 2-5 5-9 7s-7 4-10 5v-10c6-3 10-6 14-10s7-8 9-11h6v85zm20 0m5-42c0-10 1-18 3-24s5-11 9-14 9-5 14-5c4 0 8 1 11 3s6 5 8 8 4 8 5 13 2 12 2 20c0 10-1 18-3 24s-5 11-9 14-9 5-14 5c-8 0-14-3-18-9-5-7-8-19-8-34zm10 0c0 14 2 23 5 28s7 7 11 7 8-2 11-7 5-14 5-28-2-23-5-28c-3-4-7-7-11-7s-8 2-11 6c-3 5-5 15-5 28zm47 42m41 0h-10v-66c-2 2-5 5-9 7s-7 4-10 5v-10c6-2 10-6 14-10s7-8 9-11h6v85zm20 0m5-42c0-10 1-18 3-24s5-11 9-14 9-5 14-5c4 0 8 1 11 3s6 5 8 8 4 8 5 13 2 12 2 20c0 10-1 18-3 24s-5 11-9 14-9 5-14 5c-8 0-14-3-18-9-5-7-8-19-8-34zm10 0c0 14 2 23 5 28s7 7 11 7c5 0 8-2 11-7s5-14 5-28-2-23-5-28-7-7-11-7c-5 0-8 2-11 6-3 5-5 15-5 29zm47 42m41 0h-10v-66c-2 2-5 5-9 7s-7 4-10 5v-10c6-3 10-6 14-10s7-8 9-11h6v85zm20 0m5-42c0-10 1-18 3-24s5-11 9-14 9-5 14-5c4 0 8 1 11 2 3 2 6 5 8 8 2 4 4 8 5 13s2 12 2 20c0 10-1 18-3 24s-5 11-9 14-9 5-14 5c-8 0-14-3-18-9-5-7-8-19-8-35zm10 0c0 14 2 23 5 28s7 7 11 7c5 0 8-2 11-7s5-14 5-28-2-23-5-28c-3-4-7-7-11-7-5 0-8 2-11 6-3 5-5 15-5 29zm47 42m5-42c0-10 1-18 3-24s5-11 9-14 9-5 14-5c4 0 8 1 11 3s6 4 8 8c2 3 4 8 5 13s2 12 2 20c0 10-1 18-3 24s-5 11-9 14-9 5-14 5c-8 0-14-3-18-9-5-7-8-19-8-35zm10 0c0 14 1 23 5 28 3 5 7 7 11 7s8-2 11-7 5-14 5-28-2-23-5-28-7-7-12-7c-4 0-8 2-11 6-3 5-5 15-5 29zm47 42m41 0h-10v-67c-2 2-5 5-9 7s-7 4-10 6v-10c5-3 10-6 14-10s7-8 9-11h6v85zm20 0m5-42c0-10 1-18 3-24s5-11 9-14 9-5 14-5c4 0 8 1 11 3s6 4 8 8c2 3 4 8 5 13s2 12 2 20c0 10-1 18-3 24s-5 11-9 14-9 5-14 5c-8 0-14-3-18-9-5-7-8-19-8-35zm10 0c0 14 1 23 5 28 3 5 7 7 11 7s8-2 11-7 5-14 5-28-2-23-5-28-7-7-12-7c-4 0-8 2-11 6-3 5-5 15-5 29zm47 42m41 0h-10v-67c-2 2-5 5-9 7s-7 4-10 6v-10c6-3 10-6 14-10s7-8 9-11h6v86zm20 0m5-42c0-10 1-18 3-25 2-6 5-11 9-14s9-5 14-5c4 0 8 1 11 3s6 4 8 8c2 3 4 8 5 13s2 12 2 20c0 10-1 18-3 24s-5 11-9 14-9 5-14 5c-8 0-14-3-18-9-5-7-8-19-8-35zm10 0c0 14 2 23 5 28s7 7 11 7 8-2 11-7 5-14 5-28-2-23-5-28-7-7-12-7c-4 0-8 2-11 6-3 5-5 15-5 29zm47 42m5-42c0-10 1-18 3-24s5-11 9-14 9-5 14-5c4 0 8 1 11 3s6 5 8 8 3 8 5 13c1 5 2 12 2 20 0 10-1 18-3 24s-5 11-9 14-9 5-15 5c-8 0-14-3-18-9-5-7-8-19-8-35zm10 0c0 14 1 23 4 28s7 7 11 7c5 0 8-2 11-7s5-14 5-28-2-23-5-28c-3-4-7-7-11-7-5 0-8 2-11 6-3 5-5 15-5 29zm47 42m41 0h-10v-67c-2 2-5 5-9 7s-7 4-10 5v-10c5-3 10-6 14-10s7-8 9-12h6v86zm20 0m5-42c0-10 1-18 3-24s5-11 9-14 9-5 15-5c4 0 8 1 11 3s6 4 8 8c2 3 4 8 5 13s2 12 2 20c0 10-1 18-3 24s-5 11-9 14-9 5-14 5c-8 0-14-3-18-9-5-7-8-19-8-35zm10 0c0 14 2 23 5 28s7 7 11 7 8-2 11-7 5-14 5-28-1-23-5-28c-3-5-7-7-11-7s-8 2-11 6c-3 5-5 15-5 29zm47 42m41 0h-10v-67c-2 2-6 5-9 7-4 3-7 4-10 5v-10c5-3 10-6 14-10s7-8 9-11h6v86zm20-1m5-42c0-10 1-18 3-24s5-11 9-14 8-5 14-5c4 0 8 1 11 2 4 2 6 5 8 8s4 8 5 13 2 12 2 20c0 10-1 18-3 24s-5 11-9 14-9 5-14 5c-8 0-14-3-18-9-5-7-8-19-8-35zm10 0c0 14 1 23 5 28 3 5 7 7 11 7s8-2 11-7 5-14 5-28-1-24-5-28c-3-5-7-7-11-7s-8 2-11 6c-3 5-5 15-5 29zm47 41m41-1h-10v-67c-2 2-5 5-9 8-4 2-7 4-10 5v-10c5-3 10-6 14-10s7-8 9-12h6v86zm20 0m5-42c0-10 1-18 3-25 2-6 5-11 9-14s9-5 14-5c4 0 8 1 11 2 3 2 6 5 8 8s4 8 5 13 2 12 2 20c0 10-1 18-3 24s-5 11-9 14-9 5-14 5c-8 0-14-3-18-8-5-7-8-18-8-35zm10 0c0 14 1 23 5 28 3 5 7 7 11 7s8-3 11-7c3-5 5-14 5-28s-2-23-5-28-7-7-11-7-8 2-11 6c-3 5-5 15-5 29zm47 41m41-1h-10v-67c-2 2-5 5-9 7-4 3-7 4-10 6v-10c6-3 10-6 14-10s7-8 9-12h6v86zm20 0m5-42c0-10 1-18 3-24s5-11 9-14 9-5 14-5c4 0 8 1 11 2 3 2 6 4 8 8 2 3 4 8 5 13s2 12 2 20c0 10-1 18-3 24s-5 11-9 14-9 5-14 5c-8 0-14-3-18-8-5-7-8-19-8-35zm10 0c0 14 2 23 5 28s7 7 11 7 8-2 11-7 5-14 5-28-1-23-5-28c-3-5-7-7-11-7s-8 2-11 6c-3 5-5 15-5 29zm47 41m5-42c0-10 1-18 3-24s5-11 9-14 9-5 14-5c4 0 8 1 11 2 3 2 6 4 8 8 2 3 4 8 5 12 1 5 2 12 2 20 0 10-1 18-3 24s-5 11-9 14-9 5-15 6c-8 0-14-3-18-8-5-7-8-18-8-34zm10 0c0 14 2 23 5 28s7 7 11 7c5 0 8-3 11-7 3-5 5-14 5-28s-2-23-5-28-7-7-11-7c-5 0-8 2-11 6-3 5-5 15-5 29zm-1873 173m41 0h-10v-66c-3 2-6 5-9 7-4 2-7 4-10 6v-10c5-3 10-6 14-10s7-8 9-11h6v85zm20-1m5-42c0-10 1-18 3-24s5-11 9-15 7-8 14-9c4-1 8 2 11 3 3 2 6 5 8 8s3 8 5 13c1 5 2 11 2 19 0 9-1 17-3 23s-5 10-9 13-10 2-15 4c-11 4-14 4-18-1-5-7-8-18-8-34zm10-1c0 14 1 23 4 27s3-6 11 1c2 2 8-2 11-6s5-13 5-26c0-14-2-22-5-27s-9-6-11-8c-8-8-8 5-11 10-4 6-5 16-5 30zm47 36m41 3h-10v-64c-3 2-5 4-9 6s-7 3-10 5v-10c5-2 10-5 14-9 4-3 7-7 9-10h6v83zm20 1m5-40c0-10 1-17 3-23s5-10 9-14c4-3 9-4 14-4 4 0 8 1 11 3s6 5 8 8 4 7 5 13c1 5 2 11 2 20 0 10-1 17-3 23s-5 10-9 13-9 4-14 4c-8 0-14-3-18-10-5-7-8-18-8-34zm10 1c0 13 2 22 5 27s7 7 11 7 8-2 11-6 5-13 5-27-2-23-5-28-7-7-12-7c-4 0-8 2-11 5-3 5-5 14-5 28zm47 43m41 2h-10v-65c-2 2-5 5-9 7s-7 4-10 5v-10c5-2 10-5 14-9s7-7 9-11h6v83zm20 1m5-41c0-10 1-18 3-24s5-11 9-14 8-5 14-5c4 0 8 1 11 3s6 5 8 8c2 4 4 8 5 13s2 12 2 20c0 10-1 17-3 23s-5 11-9 14-9 4-14 4c-8 0-14-3-18-9-5-7-8-18-8-34zm10 0c0 13 2 23 5 27 3 5 7 7 11 7s8-2 11-6 5-13 5-27-2-23-5-27c-3-5-7-7-12-7-4 0-8 2-11 6-3 5-5 14-5 28zm47 43m41 1h-10v-65c-2 2-5 5-9 7s-7 4-10 5v-10c5-3 10-6 14-9 4-4 7-7 9-11h6v84zm20 1m5-41c0-10 1-18 3-24s5-11 9-14 9-5 14-5c4 0 8 1 11 3s6 5 8 8 4 8 5 13 2 12 2 20c0 10-1 18-3 24s-5 11-9 14-9 5-14 5c-8 0-14-3-18-9-5-7-8-18-8-34zm10 0c0 14 2 23 5 27 3 5 7 7 11 7 5 0 8-2 11-7 3-4 5-14 5-27 0-14-2-23-5-28-3-4-7-7-11-7-5 0-8 2-11 6-3 5-5 14-5 28zm47 43m5-41c0-10 1-18 3-24s5-11 9-14 9-5 14-5c4 0 8 1 11 3s6 4 8 8c2 3 4 8 5 13s2 11 2 20c0 10-1 18-3 24s-5 11-9 14-9 5-15 5c-8 0-14-3-18-9-5-7-8-18-8-34zm10 0c0 14 2 23 5 27 3 5 7 7 11 7 5 0 8-2 11-7s5-14 5-27c0-14-2-23-5-28s-7-7-11-7c-5 0-8 2-11 6-4 5-5 14-5 28zm47 42m41 1h-10v-66c-2 2-6 5-9 7-4 2-7 4-10 5v-10c5-3 10-6 14-10s7-8 9-11h6v84zm12 0m41 1h-10v-66c-2 2-5 5-9 7s-7 4-10 5v-10c6-2 10-6 14-9 4-4 7-8 9-11h6v85zm12 0m41 1h-10v-66c-3 2-6 5-9 7-4 2-7 4-10 5v-10c5-3 10-6 14-10s7-8 9-11h6v85zm12 0m41 0h-10v-66c-2 2-5 5-9 7s-7 4-10 5v-10c6-3 10-6 14-10s7-7 9-11h6v85zm12 0m41 0h-10v-66c-3 2-5 5-9 7s-7 4-10 5v-10c5-3 10-6 14-10s7-8 9-11h6v85zm20 0m5-42c0-10 1-18 3-24s5-11 9-14 9-5 15-5c4 0 8 1 11 3s6 5 8 8c2 4 4 8 5 13s2 12 2 20c0 10-1 18-3 24s-5 11-9 14-9 5-14 5c-8 0-14-3-18-9-5-7-8-18-8-34zm10 0c0 14 1 23 5 28 3 5 7 7 11 7s8-2 11-7 5-14 5-28-2-23-5-28-7-7-12-7c-4 0-8 2-11 6-4 5-5 15-5 29zm47 42m41 0h-10v-66c-2 2-5 5-9 7s-7 4-10 5v-10c5-3 10-6 14-10s7-8 9-12h6v85zm20 0m5-42c0-10 1-18 3-24s5-11 9-14 9-5 14-5c4 0 8 1 11 3s6 4 8 8c2 3 4 8 5 13s2 12 2 20c0 10-1 18-3 24s-5 11-9 14-9 5-14 5c-8 0-14-3-18-9-5-7-8-18-8-34zm10 0c0 14 1 23 5 28 3 5 7 7 11 7s8-2 11-7 5-14 5-28-2-23-5-28-7-7-12-7c-4 0-8 2-11 6-4 5-5 15-5 29zm47 42m41 0h-10v-66c-2 2-5 5-9 7s-7 4-10 5v-10c5-3 10-6 14-10s7-8 9-11h6v85zm20 0m5-42c0-10 1-18 3-24s5-11 9-14 9-5 14-5c4 0 8 1 11 3s6 4 8 8 4 8 5 13 2 12 2 20c0 10-1 18-3 24s-5 11-9 14-9 5-14 5c-8 0-14-3-18-9-5-7-8-18-8-34zm10 0c0 14 1 23 5 28 3 4 7 7 11 7s8-2 11-7 5-14 5-28-2-24-5-28c-3-5-7-7-12-7-4 0-8 2-11 6-3 5-5 15-5 29zm47 42m5-42c0-10 1-18 3-24s5-11 9-14 9-5 14-5c4 0 8 1 11 3s6 4 8 8c2 3 4 8 5 13s2 12 2 20c0 10-1 18-3 24s-5 11-9 14-9 5-15 5c-8 0-14-3-18-9-5-7-8-19-8-35zm10 0c0 14 2 23 5 28s7 7 11 7c5 0 8-2 11-7s5-14 5-28-1-23-5-28c-3-4-7-7-11-7-5 0-8 2-11 6-4 5-5 15-5 29zm47 42m5-42c0-10 1-18 3-24s5-11 9-14 9-5 14-5c4 0 8 1 11 3s6 4 8 8 4 8 5 13 2 12 2 20c0 10-1 18-3 24s-5 11-9 14-9 5-14 5c-8 0-14-3-18-9-5-7-8-18-8-34zm10 0c0 14 2 23 5 28s7 7 11 7 8-2 11-7 5-14 5-28-2-24-5-28c-3-5-7-7-12-7-4 0-8 2-11 6-3 5-5 15-5 29zm47 42m41 0h-10v-67c-2 2-5 5-9 7s-7 4-10 6v-10c6-3 10-6 14-10s7-8 9-12h6v86zm20 0m5-42c0-10 1-18 3-25 2-6 5-11 9-14s9-5 14-5c4 0 8 1 11 3s6 4 8 8 4 8 5 13 2 12 2 20c0 10-1 18-3 24s-5 11-9 14c-4 4-9 5-14 5-8 0-14-3-18-9-5-7-8-18-8-34zm10 0c0 14 2 23 5 28s7 7 11 7 8-2 11-7 5-14 5-28-2-24-5-28c-3-5-7-7-12-7-4 0-8 2-11 6-3 5-5 15-5 29zm47 42m5-42c0-10 1-18 3-24s5-11 9-14 9-5 14-5c4 0 8 1 11 3s6 5 8 8 4 8 5 13 2 12 2 20c0 10-1 18-3 24s-5 11-9 14-9 5-15 5c-8 0-14-3-18-9-5-7-8-19-8-35zm10 0c0 14 2 23 5 28s7 7 11 7c5 0 8-2 11-7s5-14 5-28-1-23-5-28c-3-4-7-7-11-7s-8 2-11 6c-4 5-5 15-5 29zm47 42m41-1h-10v-67c-2 2-5 5-9 7s-7 4-10 5v-10c5-3 10-6 14-10s7-8 9-12h6v86zm20 0m5-42c0-10 1-18 3-25 2-6 5-11 9-14 4-4 9-5 15-5 4 0 8 1 11 3s6 4 8 8c2 3 4 8 5 13s2 12 2 20c0 10-1 18-3 24s-5 11-9 14-9 5-14 5c-8 0-14-3-18-9-5-7-8-18-8-35zm10 0c0 14 2 23 5 28s7 7 11 7 8-2 11-7 4-14 4-28-1-23-4-28-7-7-12-7c-4 0-8 2-11 6-4 6-5 15-5 29zm47 42m5-42c0-10 1-18 3-24s5-11 9-14 9-5 14-5c4 0 8 1 11 3s6 4 8 8c2 3 4 8 5 13s2 12 2 20c0 10-1 18-3 24s-5 11-9 15c-4 3-9 5-14 5-8 0-14-3-18-9-5-7-8-18-8-34zm10 0c0 14 2 23 5 28s7 7 11 7c5 0 8-2 11-7s5-14 5-28-2-24-5-28c-3-5-7-7-11-7-5 0-8 2-11 6-3 5-5 15-5 29zm47 41m5-42c0-10 1-18 3-24s5-11 9-14 9-5 14-5c4 0 8 1 11 3s6 4 8 8c2 3 4 8 5 13s2 12 2 20c0 10-1 18-3 24s-5 11-9 14-9 5-14 5c-8 0-14-3-18-9-5-7-8-18-8-35zm10 0c0 14 2 23 5 28s7 7 11 7 8-2 11-7 5-14 5-28-2-23-5-28-7-7-12-7c-4 0-8 2-11 6-4 6-5 15-5 29zm47 41m41-1h-10v-67c-2 2-5 5-9 7s-7 4-10 6v-10c5-3 10-6 14-10s7-8 9-12h6v86zm20-1m5-42c0-10 1-18 3-24s5-11 9-14 9-5 14-5c4 0 8 1 11 3s6 4 8 8c2 3 4 8 5 13s2 12 2 20c0 10-1 18-3 24s-5 11-9 14-9 5-14 5c-8 0-14-3-18-8-5-7-8-18-8-34zm10 0c0 14 2 23 5 28s7 7 11 7 8-3 11-7c3-5 5-14 5-28s-2-23-5-28-7-7-12-7c-4 0-8 2-11 6-3 5-5 15-5 29zm47 41m41-1h-10v-67c-2 2-5 5-9 7s-7 4-10 6v-10c5-3 10-6 14-10s7-8 9-12h6v86zm12-1m42-1h-10v-66c-3 2-6 5-9 8-4 2-7 4-10 6v-10c5-3 10-7 14-11s7-8 9-12h6v85zm-1920 132m4-42c0-10 1-18 3-24s5-11 9-14 9-5 14-5c4 0 8 1 11 3s6 4 8 8c2 3 4 7 5 12s2 11 2 20c0 10-1 18-3 24s-5 11-9 15c-4 3-9 5-14 5-8 0-14-3-18-9-5-7-8-18-8-35zm10 0c0 14 1 23 5 28 3 5 7 7 11 7s8-2 11-7 5-14 5-28-1-23-5-28c-3-5-7-7-11-7s-8 2-11 6c-3 5-5 15-5 29zm47 40m5-42c0-10 1-18 3-24s5-11 9-16c4-4 5-8 14-14 3-2 8 2 11 4s6 5 8 8 4 8 5 13 2 11 2 19c0 10-1 17-3 23s-5 10-9 13-11 1-15 3c-13 9-14 9-18 4-5-6-8-18-8-34zm10-1c0 14 1 23 4 27s4-8 11-4c3 2 9-1 11-6 3-4 5-13 5-27 0-13-2-22-5-27s-9-6-11-7c-8-6-8 9-11 14-4 6-5 16-5 30zm47 32m41 3l-10-1v-64c-3 2-5 4-9 6s-7 3-10 4v-10c5-2 10-5 14-9 4-3 7-7 9-10h6v82zm20 1m5-40c0-10 1-17 3-23s5-10 9-14c4-3 9-4 14-4 4 0 8 1 11 3s6 5 8 8c2 4 4 8 5 13s2 11 2 20c0 10-1 17-3 23s-5 10-9 13-9 4-14 4c-8 0-14-4-18-10-5-7-8-18-8-34zm10 1c0 13 2 22 5 27s7 7 11 7 9-2 11-6c3-4 5-13 5-27s-2-23-5-27c-3-5-7-7-12-7-4 0-8 2-11 5-3 5-5 14-5 28zm47 43m5-40c0-10 1-17 3-23s5-10 9-13 9-4 14-4c4 0 8 1 11 3s6 5 8 8 4 8 5 13 2 11 2 20c0 10-1 18-3 24s-5 11-9 14-9 4-15 4c-8 0-14-4-18-10-5-7-8-19-8-34zm10 1c0 14 2 23 5 27 3 5 7 7 11 7 5 0 8-2 11-6 3-5 5-13 5-27s-2-23-5-27c-3-5-7-7-11-7-5 0-8 2-11 5-3 5-5 14-5 28zm47 43m41 2h-10v-65c-2 2-5 4-9 7-4 2-7 4-10 5v-10c6-3 10-6 14-9 4-4 7-7 9-11h6v84zm12 1m41 2h-10v-65c-2 2-5 5-9 7s-7 4-10 5v-10c5-3 10-6 14-9 4-4 7-7 9-11h6v84zm20 1m5-41c0-10 1-18 3-24s5-11 9-14 9-5 14-5c4 0 8 1 11 3s6 5 8 8 4 8 5 12c1 5 2 12 2 20 0 10-1 18-3 24s-5 10-9 14c-4 3-9 5-14 5-8 0-14-3-18-9-5-7-8-18-8-34zm10 0c0 14 2 23 5 27 3 5 7 7 11 7s8-2 11-7 5-13 5-27-2-23-5-27c-3-5-7-7-12-7-4 0-8 2-11 6-3 5-5 14-5 28zm47 43m41 1h-10v-66c-2 2-5 5-9 7s-7 4-10 5v-10c6-2 10-6 14-9 4-4 7-7 9-11h6v84zm20 0m5-41c0-10 1-18 3-24s5-11 9-14 9-5 14-5c4 0 8 1 11 3s6 5 8 8 4 8 5 12c1 5 2 12 2 20 0 10-1 18-3 24s-5 11-9 14-9 5-14 5c-8 0-14-3-18-9-5-7-8-18-8-34zm10 0c0 14 1 23 5 28 3 5 7 7 11 7s8-2 11-6c3-5 5-14 5-28s-2-23-5-28-7-7-12-7c-4 0-8 2-11 6-3 5-5 14-5 28zm47 42m5-42c0-10 1-18 3-24s5-11 9-14 9-5 14-5c4 0 8 1 11 3s6 5 8 8 4 8 5 12c1 5 2 12 2 20 0 10-1 18-3 24s-5 11-9 14-9 5-15 5c-8 0-14-3-18-9-5-7-8-19-8-35zm10 0c0 14 2 23 5 28s7 7 11 7c5 0 8-2 11-7s5-14 5-28-2-23-5-28-7-7-11-7c-5 0-8 2-11 6-4 5-5 14-5 28zm47 43m41 1h-10v-66c-2 2-6 5-9 7-4 2-7 4-10 5v-10c5-3 10-6 14-10s7-8 9-11h6v85zm20 0m5-42c0-10 1-18 3-24s5-11 9-14 9-5 14-5c4 0 8 1 11 3s6 5 8 8 4 8 5 13 2 12 2 20c0 10-1 18-3 24s-5 11-9 14-9 5-15 5c-8 0-14-3-18-9-5-7-8-18-8-34zm10 0c0 14 2 23 5 28s7 7 11 7c5 0 8-2 11-7s5-14 5-28-2-23-5-28-7-7-11-7-8 2-11 6c-4 5-5 15-5 28zm47 42m5-42c0-10 1-18 3-24s5-11 9-14 9-5 14-5c4 0 8 1 11 3s6 4 8 8 4 8 5 13 2 12 2 20c0 10-1 18-3 24s-5 11-8 14c-4 3-9 5-15 5-8 0-14-3-18-9-5-7-8-19-8-35zm10 0c0 14 2 23 5 28s7 7 11 7c5 0 8-2 11-7s5-14 5-28-2-23-5-28-7-7-11-7c-5 0-8 2-11 6-3 5-5 15-5 29zm47 42m41 0h-10v-66c-2 2-6 5-9 7-4 2-7 4-10 5v-10c6-3 11-6 14-10 4-4 7-8 9-11h6v85zm20 0m5-42c0-10 1-18 3-24s5-11 9-14 9-5 14-5c4 0 8 1 11 3s6 4 8 8c2 3 4 8 5 13s2 12 2 20c0 10-1 18-3 24s-5 11-9 14-9 5-15 5c-8 0-14-3-18-9-5-7-8-19-8-35zm10 0c0 14 2 23 5 28s7 7 11 7c5 0 9-2 11-7 3-5 5-14 5-28s-2-23-5-28-7-7-11-7c-5 0-8 2-11 6-3 5-5 15-5 29zm47 42m41 0h-10v-67c-2 2-5 5-9 7s-7 4-10 5v-10c6-3 10-6 14-10s7-8 9-11h6v85zm20 0m5-42c0-10 1-18 3-24s5-11 9-14 9-5 14-5 8 1 11 3 6 5 8 8c2 4 4 8 5 13s2 12 2 20c0 10-1 18-3 24s-5 11-9 14-9 5-15 5c-8 0-14-3-18-9-5-7-8-19-8-35zm10 0c0 14 2 23 5 28s7 7 11 7c5 0 8-2 11-7s5-14 5-28-2-23-5-28-7-7-11-7c-5 0-8 2-11 6-3 5-5 15-5 29zm47 42m41 0h-10v-67c-2 2-5 5-9 7s-7 4-10 6v-10c6-3 11-6 14-10 4-4 7-8 9-12h6v86zm20 0m5-42c0-10 1-18 3-24s5-11 9-14 9-5 14-5c4 0 8 1 11 3s6 5 8 8 4 8 5 13 2 12 2 20c0 10-1 18-3 24s-5 11-9 14-9 5-14 5c-8 0-14-3-18-9-5-7-8-19-8-35zm10 0c0 14 2 23 5 28s7 7 11 7 8-2 11-7 5-14 5-28-2-24-5-28c-3-5-7-7-11-7-5 0-8 2-11 6-3 5-5 15-5 29zm47 42m42 0h-10v-67c-3 2-6 5-9 7-4 2-7 4-10 6v-10c5-3 10-6 14-10s7-8 9-11h6v86zm20 0m5-42c0-10 1-18 3-24s5-11 9-14 9-5 14-5c4 0 8 1 11 3s6 4 8 8 4 8 5 13 2 12 2 20c0 10-1 18-3 24s-5 11-9 14-9 5-14 5c-8 0-14-3-18-9-5-7-8-19-8-35zm10 0c0 14 2 23 5 28s7 7 11 7c5 0 8-2 11-7s5-14 5-28-2-24-5-28c-3-5-7-7-11-7-5 0-8 2-11 6-3 5-5 15-5 29zm47 42m5-42c0-10 1-18 3-24s5-11 9-14c4-4 9-5 14-5 4 0 8 1 11 3s6 4 8 8c2 3 4 8 5 13s2 12 2 20c0 10-1 18-3 24s-5 11-9 14-9 5-14 5c-8 0-14-3-18-9-5-7-8-19-8-35zm10 0c0 14 2 23 5 28s7 7 11 7 8-3 11-7c3-5 5-14 5-28s-2-24-5-28c-3-5-7-7-12-7-4 0-8 2-11 6-4 6-5 15-5 29zm47 42m41 0h-10v-67c-2 3-5 5-9 7-4 3-7 4-10 6v-10c5-3 10-6 14-10s7-8 9-11h6v86zm21 0m5-42c0-10 1-18 3-24s5-11 9-14c4-4 9-5 14-5 4 0 8 1 11 3s6 4 8 8c2 3 4 8 5 13s2 12 2 20c0 10-1 18-3 24s-5 11-9 14-9 5-15 5c-8 0-14-3-18-9-5-7-8-19-8-35zm10 0c0 14 2 23 5 28s7 7 11 7c5 0 8-2 11-7s5-14 5-28-2-24-5-28c-3-5-7-7-11-7-5 0-8 2-11 6-3 5-5 15-5 29zm47 42m41-1h-10v-67c-2 3-5 5-9 7s-7 5-10 6v-10c5-3 10-6 14-10s7-8 9-12h6v86zm21 0m5-42c0-10 1-18 3-24s5-11 9-14 9-5 14-5c4 0 8 1 11 3s6 4 8 8c2 3 4 8 5 12 1 5 2 12 2 20 0 10-1 18-3 25-2 6-5 11-9 14s-9 5-15 5c-8 0-14-3-18-9-5-7-8-19-8-35zm10 0c0 14 2 23 5 28s7 7 11 7c5 0 8-2 11-7s5-14 5-28-2-23-5-28-7-7-11-7c-5 0-8 2-11 6-4 6-5 15-5 29zm47 41m41-1h-10v-67c-2 3-5 5-9 7-4 3-7 4-10 6v-10c5-3 10-7 14-10 4-4 7-8 9-12h6v86zm21-1m5-42c0-10 1-18 3-24s5-11 9-14 9-5 14-5c4 0 8 1 11 3s6 4 8 8c2 3 4 8 5 12 1 5 2 12 2 20 0 10-1 18-3 24s-5 11-9 14-9 5-15 6c-8 0-14-3-18-9-5-7-8-18-8-35zm10 0c0 14 1 23 5 28 3 5 7 7 11 7 5 0 8-3 11-7 3-5 5-14 5-28s-2-23-5-28-7-7-11-7c-5 0-8 2-11 6-4 5-5 15-5 29zm47 41m41-1h-10v-67c-2 2-6 5-9 7-4 3-7 5-10 6v-10c5-3 10-7 14-10 4-4 7-8 9-12h6v86zm21-1m5-42c0-10 1-18 3-24s5-11 9-15 9-5 14-5c4 0 8 1 11 2 3 2 6 4 8 8 2 3 4 8 5 12 1 5 2 12 2 20 0 10-1 18-3 24s-5 11-9 15c-4 3-9 5-15 6-8 0-14-2-18-8-5-7-8-18-8-34zm10 0c0 14 2 23 5 28s7 7 11 7c5 0 8-3 11-8s5-14 5-28-2-23-5-28c-3-4-7-7-11-6-5 0-8 2-11 6-4 5-5 15-5 29zm-1864 172m41-1h-10v-66c-3 2-6 5-9 7-4 2-7 4-10 6v-10c5-3 10-6 14-10s7-8 9-11h6v85zm20-2m5-42c0-10 1-18 3-24s5-11 9-16c4-4 4-8 14-18 2-2 8 2 11 4s6 5 8 8c2 4 4 8 5 13s2 11 2 20c0 10-1 17-3 23s-5 10-9 13-12 1-15 3c-13 13-14 13-18 9-6-6-8-18-8-34zm10-1c0 14 1 23 4 26s5-10 11-8c4 1 8-1 11-6 3-4 5-13 5-26s-2-22-5-27-8-6-11-8c-7-3-8 14-11 19-3 6-5 16-5 30zm47 28m41 4l-10-1v-64c-3 2-5 4-9 6s-7 3-10 4v-10c5-2 10-5 14-8s7-7 9-10h6v82zm20 2m5-40c0-10 1-18 3-23 2-6 5-10 9-13s9-4 14-4c4 0 8 1 11 3s6 5 8 8 4 7 5 12 2 12 2 20c0 10-1 17-3 23s-5 10-9 13-9 4-14 4c-8-1-14-4-18-10-5-7-8-19-8-34zm10 1c0 14 2 22 5 27s7 7 11 7 8-2 11-6 5-13 5-27-2-23-5-27c-3-5-7-7-12-8-4 0-8 1-11 5-3 5-5 14-5 27zm47 44m5-40c0-10 1-17 3-23s5-10 9-13 9-4 14-4c4 0 8 1 11 3s6 5 8 8 4 7 5 13c1 5 2 11 2 20 0 10-1 18-3 24s-5 10-9 13-9 4-15 4c-8 0-14-4-18-10-5-7-8-19-8-35zm10 1c0 14 2 23 5 28s7 7 11 7c5 0 8-2 11-6s5-13 5-27-2-23-5-27c-3-5-7-7-11-7-5 0-8 2-11 5-3 5-5 14-5 28zm47 43m41 2h-10v-65c-2 2-5 5-9 7s-7 4-10 5v-10c6-3 10-6 14-9 4-4 7-7 9-11h6v83zm21 1m5-41c0-10 1-18 3-24s5-10 9-14c4-3 9-5 14-4 4 0 8 1 11 3s6 4 8 8c2 3 4 7 5 12s2 12 2 20c0 10-1 18-3 24s-5 10-9 14c-4 3-9 5-15 5-8 0-14-3-18-9-5-7-8-19-8-35zm10 1c0 14 2 23 5 28s7 7 11 7c5 0 8-2 11-7 3-4 5-13 5-27s-2-23-5-27c-3-5-7-7-11-7-5 0-8 2-11 6-3 5-5 14-5 28zm47 43m41 1h-10v-65c-2 2-6 5-9 7-4 2-7 4-10 5v-10c5-3 10-6 14-9 4-4 7-8 9-11h6v84zm21 1m5-41c0-10 1-18 3-24s5-11 9-14 9-5 14-5c4 0 8 1 11 3s6 4 8 8c2 3 4 8 5 13s2 11 2 20c0 10-1 18-3 24s-5 10-9 14c-4 3-9 5-15 5-8 0-14-3-18-9-5-7-8-19-8-34zm10 0c0 14 2 23 5 28s7 7 11 7c5 0 8-2 11-7 3-4 5-13 5-27s-2-23-5-28-7-7-11-7c-5 0-8 2-11 6-3 5-5 14-5 28zm47 43m5-41c0-10 1-18 3-24s5-11 9-14 9-5 14-5c4 0 8 1 11 3s6 5 8 8 4 8 5 13 2 12 2 20c0 10-1 18-3 24s-5 10-9 14c-4 3-9 5-14 5-8 0-14-3-18-9-5-7-8-19-8-34zm10 0c0 14 2 23 5 28s7 7 11 7 8-2 11-7 5-13 5-27-2-23-5-28c-3-4-7-7-11-7s-8 2-11 6c-3 5-5 14-5 28zm47 43m5-41c0-10 1-18 3-24s5-11 9-14 9-5 14-5c4 0 8 1 11 3s6 4 8 8c2 3 4 7 5 13 1 5 2 12 2 20 0 10-1 18-3 24s-5 11-9 14-9 5-15 5c-8 0-14-3-18-9-5-7-8-18-8-34zm10 0c0 14 1 23 5 28 3 5 7 7 11 7 5 0 8-2 11-7s5-14 5-28-2-23-5-28-7-7-11-7c-5 0-8 2-11 6-3 5-5 14-5 28zm47 42m41 1h-10v-66c-2 3-5 5-9 7s-7 4-10 5v-10c5-3 10-6 14-10s7-7 9-11h6v85zm12 0m41 1h-10v-66c-2 2-5 5-9 7s-7 4-10 5v-10c6-3 10-6 14-10s7-8 9-11h6v85zm12 0m41 1h-10v-66c-3 2-6 5-9 7-4 2-7 4-10 5v-10c5-3 10-6 14-10s7-8 9-11h6v85zm12 0m41 0h-10v-66c-2 2-6 5-9 7-4 2-7 4-10 5v-10c5-3 10-6 14-10s7-7 9-11h6v85zm21 0m5-42c0-10 1-18 3-24s5-11 9-14 9-5 14-5c4 0 8 1 11 3s6 4 8 8c2 3 4 7 5 13 1 5 2 12 2 20 0 10-1 18-3 24s-5 11-9 14-9 5-15 5c-8 0-14-3-18-9-6-7-8-19-8-35zm10 0c0 14 2 23 5 28s7 7 11 7c5 0 8-2 11-7s5-14 5-28-2-23-5-28-7-7-11-7c-5 0-8 2-11 6-3 5-5 15-5 29zm47 42m41 0h-10v-66c-2 3-5 5-9 7s-7 4-10 5v-10c5-3 10-6 14-10s7-7 9-11h6v85zm21 0m5-42c0-10 1-18 3-24s5-11 9-14 9-5 14-5c4 0 8 1 11 3s6 4 8 8c2 3 4 8 5 13s2 12 2 20c0 10-1 18-3 24s-5 11-9 14-9 5-15 5c-8 0-14-3-18-9-5-7-8-19-8-35zm10 0c0 14 1 23 5 28 3 5 7 7 11 7 5 0 8-2 11-7s5-14 5-28-2-24-5-28c-3-5-7-7-11-7-5 0-8 2-11 6-4 5-5 15-5 29zm47 42m41 0h-10v-67c-2 3-5 5-9 7s-7 4-10 5v-10c5-3 10-6 14-10s7-8 9-11h6v85zm21 0m5-42c0-10 1-18 3-24s5-11 9-14 9-5 14-5c4 0 8 1 11 3s6 4 8 8c2 3 4 8 5 13s2 12 2 20c0 10-1 18-3 24s-5 11-9 14-9 5-15 5c-8 0-14-3-18-9-5-7-8-19-8-35zm10 0c0 14 1 23 5 28 3 5 7 7 11 7 5 0 8-2 11-7s5-14 5-28-2-23-5-28-7-7-11-7c-5 0-8 2-11 6-4 5-5 15-5 29zm47 42m5-42c0-10 1-18 3-24s5-11 9-14 9-5 14-5c4 0 8 1 11 3s6 5 8 8c2 4 4 8 5 13s2 12 2 20c0 10-1 18-3 24s-5 11-9 14-9 5-14 5c-8 0-14-3-18-9-5-7-8-19-8-35zm10 0c0 14 2 23 5 28s7 7 11 7 8-2 11-7 5-14 5-28-2-24-5-28c-3-5-7-7-11-7s-8 2-11 6c-3 5-5 15-5 29zm47 42m41 0h-10v-67c-2 2-5 5-9 7s-7 4-10 5v-10c6-3 10-6 14-10s7-8 9-12h6v86zm20 0m5-42c0-10 1-18 3-24s5-11 9-14 9-5 14-5c4 0 8 1 11 3s6 4 8 8 4 8 5 13 2 12 2 20c0 10-1 18-3 24s-5 11-9 14-9 5-14 5c-8 0-14-3-18-9-5-7-8-19-8-35zm10 0c0 14 2 23 5 28s7 7 11 7 8-2 11-7 5-14 5-28-2-24-5-28c-3-5-7-7-11-7s-8 2-11 6c-3 5-5 15-5 29zm47 42m41 0h-10v-67c-2 2-5 5-9 7s-7 4-10 6v-10c6-3 10-6 14-10s7-8 9-12h6v86zm20 0m5-42c0-10 1-18 3-24s5-11 9-14 9-5 14-5c4 0 8 1 11 3s6 4 8 8 4 8 5 13 2 12 2 20c0 10-1 18-3 24s-5 11-9 14-9 5-14 5c-8 0-14-3-18-9-5-7-8-19-8-35zm10 0c0 14 2 23 5 28 3 4 7 7 11 7 5 0 8-2 11-7s5-14 5-28-1-23-5-28c-3-5-7-7-11-7-5 0-8 2-11 6-3 5-5 15-5 29zm47 42m41-1h-10v-67c-2 2-6 5-9 7-4 3-7 4-10 6v-10c6-3 10-6 14-10s7-8 9-12h6v86zm12 0m41-1h-10v-67c-2 2-5 5-9 7s-7 4-10 5v-10c5-3 10-6 14-10s7-8 9-11h6v86zm20 0m5-42c0-10 1-18 3-24s5-11 9-14 9-5 14-5c4 0 8 1 11 3s6 4 8 8c2 3 4 8 5 13s2 12 2 20c0 10-1 18-3 24s-5 11-9 14-9 5-14 5c-8 0-14-3-18-9-5-7-8-18-8-35zm10 0c0 14 2 24 5 28 3 5 7 7 11 7s8-3 11-7c3-5 5-14 5-28s-2-23-5-28-7-7-12-7c-4 0-8 2-11 6-3 5-5 15-5 29zm47 41m41-1h-10v-67c-2 3-5 5-9 8s-7 4-10 6v-10c5-3 10-6 14-10s7-8 9-12h6v86zm20-1m5-42c0-10 1-18 3-24s5-11 9-15c4-3 9-5 14-5 4 0 8 1 11 3s6 4 8 8c2 3 4 7 5 12s2 12 2 20c0 10-1 18-3 24s-5 11-9 14c-4 4-9 5-14 5-8 0-14-3-18-8-5-7-8-18-8-34zm10 0c0 14 2 23 5 28s7 7 11 7 8-3 11-7c3-5 5-14 5-28s-2-23-5-28-7-7-12-7c-4 0-8 2-11 6-3 5-5 15-5 29zm47 40m5-42c0-10 1-18 3-24s5-11 9-15c4-3 9-5 14-5 4 0 8 1 11 2 3 2 6 4 8 8 2 3 4 7 5 12s2 12 2 20c0 10-1 18-3 24s-5 11-9 15c-4 3-9 5-14 6-8 0-14-2-18-8-5-7-8-18-8-35zm10 0c0 14 2 23 5 28s7 7 11 6c5 0 8-3 11-8s5-14 5-28-2-23-5-28c-3-4-7-7-11-6-5 0-8 2-11 6-3 5-5 15-5 29zm-1839 171m4-42c0-10 1-18 3-24s5-11 9-14 9-5 14-5c4 0 8 1 11 2 3 2 6 4 8 8 2 3 4 7 5 12s2 11 2 20c0 10-1 18-3 24s-5 11-9 15-9 5-14 5c-8 0-14-2-18-8-5-7-8-18-8-34zm10 0c0 14 1 23 5 28 3 4 7 7 11 7s8-3 11-7c3-5 5-14 5-28s-1-23-5-28c-3-5-7-7-11-7s-8 2-11 6c-3 5-5 15-5 29zm47 39m5-42c0-10 1-18 3-24s5-11 9-16 4-9 14-23c1-2 8 2 11 4s6 5 8 8c2 4 4 8 5 13s2 11 2 20c0 10-1 17-3 23s-5 10-9 13-13 0-15 3c-14 17-14 18-18 14-6-6-8-18-8-33zm10-2c0 14 1 23 4 26s7-13 11-13c5 1 8-1 11-6 3-4 5-13 5-26s-2-22-5-27-7-7-11-8c-5-1-8 18-11 23-3 6-5 16-5 30zm47 24m41 5l-10-1v-64c-3 2-5 4-9 6s-7 3-10 4v-10c5-2 10-5 14-8s7-7 9-10h6v82zm20 2m5-40c0-10 1-18 3-23 2-6 5-10 9-13s9-4 14-4c4 0 8 2 11 3 3 2 6 5 8 8 2 4 4 8 5 13s2 12 2 20c0 10-1 17-3 23s-5 10-9 13-9 4-14 3c-8-1-14-4-18-10-5-7-8-19-8-34zm10 1c0 14 2 22 5 27s7 7 11 8c4 0 8-2 11-6s5-13 5-27c0-13-2-23-5-27-3-5-7-7-12-8-4 0-8 1-11 5-3 5-5 14-5 27zm47 44m41 3h-10v-65c-2 2-5 4-9 6s-7 4-10 5v-10c5-2 10-5 14-9s7-7 9-11h6v83zm20 1m5-41c0-10 1-18 3-24s5-10 9-14c3-3 8-4 14-4 4 0 8 1 11 3s6 5 8 8c2 4 4 8 5 13s2 12 2 20c0 10-1 18-3 23-2 6-5 10-9 13s-9 4-14 4c-8 0-14-3-18-9-5-7-8-19-8-34zm10 1c0 14 2 23 5 27 3 5 7 7 11 8 4 0 8-2 11-6s5-13 5-27-2-23-5-28-7-7-12-7c-4 0-8 2-11 5-3 5-5 14-5 28zm47 43m41 2h-10v-65c-2 2-5 5-9 7s-7 4-10 5v-10c5-2 10-6 14-9 4-4 7-8 9-11h6v84zm20 1m5-41c0-10 1-18 3-24s5-10 9-13 9-5 14-4c4 0 8 1 11 3s6 5 8 8 4 8 5 13 2 12 2 20c0 10-1 18-3 24s-5 10-9 14c-4 3-9 5-14 5-8 0-14-3-18-9-5-7-8-19-8-34zm10 0c0 14 1 23 5 28 3 5 7 7 11 7 5 0 8-2 11-6s5-14 5-27c0-14-2-23-5-28s-7-7-11-7c-5 0-8 2-11 6-3 5-5 14-5 28zm47 43m5-41c0-10 1-18 3-24s5-10 9-13 9-5 14-5c4 0 8 1 11 3s6 5 8 8 4 8 5 13 2 11 2 20c0 10-1 18-3 24s-5 11-9 14-9 5-15 4c-8 0-14-3-18-9-5-7-8-19-8-34zm10 0c0 14 1 23 5 28 3 5 7 7 11 7 5 0 8-2 11-7 3-4 5-13 5-27s-2-23-5-28-7-7-11-7c-5 0-8 2-11 6-4 5-5 14-5 28zm47 43m5-41c0-10 1-18 3-24s5-11 9-14 9-5 14-5c4 0 8 1 11 3s6 5 8 8 4 8 5 13 2 12 2 20c0 10-1 18-3 24s-5 11-9 14-9 5-14 5c-8 0-14-3-18-9-5-7-8-19-8-34zm10 0c0 14 2 23 5 28s7 7 11 7 8-2 11-7 5-14 5-27c0-14-2-23-5-28s-7-7-11-7-8 2-11 6c-3 5-5 14-5 28zm47 43m5-41c0-10 1-18 3-24s5-11 9-14 9-5 14-5c4 0 8 1 11 3s6 5 8 8 4 8 5 13 2 12 2 20c0 10-1 18-3 24s-5 11-9 14-9 5-15 5c-8 0-14-3-18-9-5-7-8-18-8-34zm10 0c0 14 1 23 5 28 3 5 7 7 11 7 5 0 8-2 11-7s5-14 5-28-2-23-5-28-7-7-11-7c-5 0-8 2-11 6-4 5-5 15-5 28zm47 43m41 1h-10v-66c-2 2-5 5-9 7s-7 4-10 5v-10c5-3 10-6 14-10s7-8 9-11h6v85zm20 1m5-42c0-10 1-18 3-24s5-11 9-14 9-5 14-5c4 0 8 1 11 3s6 5 8 8 4 7 5 13c1 5 2 11 2 20 0 10-1 18-3 24s-5 11-9 14-9 5-15 5c-8 0-14-3-18-9-5-7-8-19-8-34zm10 0c0 14 2 23 5 28s7 7 11 7c5 0 9-2 12-7s5-14 5-27c0-14-2-23-5-28s-7-7-12-7c-4 0-8 2-11 6-4 5-5 15-5 29zm47 43m41 1h-10v-66c-2 3-6 5-9 7-4 2-7 4-10 5v-10c5-3 10-6 14-10s7-8 9-11h6v85zm20 1m5-42c0-10 1-18 3-24s5-11 9-14 9-5 15-5c4 0 8 1 11 3s6 5 8 8 4 7 5 13c1 5 2 12 2 20 0 10-1 18-3 24s-5 11-9 14-9 5-14 5c-8 0-14-3-18-9-5-7-8-19-8-34zm10 0c0 14 1 23 5 28 3 5 7 7 11 7s8-2 11-7 5-14 5-28-2-23-5-28-7-7-12-7c-4 0-8 2-11 6-3 5-5 15-5 29zm47 42m41 1h-10v-66c-2 2-5 5-9 7s-7 4-10 5v-10c5-3 10-6 14-10s7-8 9-11h6v85zm20 0m5-42c0-10 1-18 3-24s5-11 9-14 9-5 14-5c4 0 8 1 11 3s6 5 8 8 4 8 5 13 2 12 2 20c0 10-1 18-3 24s-5 11-9 14-9 5-14 5c-8 0-14-3-18-9-5-7-8-19-8-35zm10 0c0 14 1 23 5 28 3 5 7 7 11 7s8-2 11-7c3-4 5-14 5-28s-1-23-5-28c-3-5-7-7-12-7-4 0-8 2-11 6-3 5-5 15-5 29zm47 42m41 0h-10v-67c-2 3-5 5-9 7s-7 4-10 5v-10c5-3 10-6 14-10s7-8 9-12h6v85zm20 0m5-42c0-10 1-18 3-24s5-11 9-14 9-5 14-5c4 0 8 1 11 3s6 4 8 8c2 3 4 8 5 13s2 12 2 20c0 10-1 18-3 24s-5 11-9 14-9 5-14 5c-8 0-14-3-18-9-5-7-8-19-8-35zm10 0c0 14 1 23 5 28 3 5 7 7 11 7s8-2 11-7 5-14 5-28-2-23-5-28-7-7-12-7c-4 0-8 2-11 6-3 5-5 15-5 29zm47 42m5-42c0-10 1-18 3-24s5-11 9-14 9-5 14-5c4 0 8 1 11 3 4 2 6 5 8 8 2 4 4 8 5 13s2 12 2 20c0 10-1 18-3 24s-5 11-9 14-9 5-15 5c-8 0-14-3-18-9-5-7-8-19-8-35zm10 0c0 14 2 23 5 28s7 7 11 7c5 0 8-2 11-7 3-4 5-14 5-28s-1-23-5-28c-3-4-7-7-11-7-5 0-8 2-11 6-3 5-5 15-5 29zm47 42m42 0h-10v-67c-3 2-6 5-9 7-4 2-7 4-10 5v-10c5-3 10-6 14-10s7-8 9-12h6v86zm12 0m41 0h-10v-67c-2 2-5 5-9 7-4 3-7 4-10 6v-10c5-3 10-6 14-10s7-8 9-11h6v86zm21 0m5-42c0-10 1-18 3-24s5-11 9-14c4-4 9-5 14-5 4 0 8 1 11 3s6 4 8 8c2 3 4 8 5 13s2 12 2 20c0 10-1 18-3 24s-5 11-9 14-9 5-14 5c-8 0-14-3-18-9-5-7-8-19-8-35zm10 0c0 14 1 23 5 28 3 5 7 7 11 7s8-3 11-7c3-5 5-14 5-28s-2-23-5-28-7-7-12-7c-4 0-8 2-11 6-3 5-5 15-5 29zm47 42m5-42c0-10 1-18 3-24s5-11 9-14 9-5 15-5c4 0 8 1 11 3s6 4 8 8c2 3 4 8 5 13s2 12 2 20c0 10-1 18-3 24s-5 11-9 14c-4 4-9 5-14 5-8 0-14-3-18-9-5-7-8-19-8-35zm10 0c0 14 2 23 5 28s7 7 11 7 8-3 11-7c3-5 5-14 5-28s-2-24-5-28c-3-5-7-7-11-7s-8 2-11 6c-3 5-5 15-5 29zm47 42m41 0h-10v-67c-3 2-6 5-9 7-4 2-7 4-10 6v-10c5-3 10-6 14-10s7-8 9-12h6v86zm20 0m5-42c0-10 1-18 3-24s5-11 9-14 8-5 14-5c4 0 8 1 11 2 3 2 6 4 8 8s4 8 5 13 2 12 2 20c0 10-1 18-3 24s-5 11-9 14c-4 4-9 5-14 5-8 0-14-2-18-8-5-7-8-19-8-35zm10 0c0 14 2 23 5 28s7 7 11 7 8-3 11-7c3-5 5-14 5-28s-2-24-5-28c-3-5-7-7-11-7s-8 2-11 6c-3 5-5 15-5 29zm47 41m41-1h-10v-67c-2 2-5 5-9 7s-7 4-10 6v-10c5-3 10-6 14-10s7-8 9-12h6v86zm20 0m5-42c0-10 1-18 3-24s5-11 9-14 9-5 14-5c4 0 8 1 11 2 3 2 6 4 8 8 2 3 4 8 5 13s2 12 2 20c0 10-1 18-3 24s-5 11-9 14c-4 4-9 5-14 5-8 0-14-2-18-8-5-7-8-19-8-35zm10 0c0 14 2 23 5 28s7 7 11 7 8-3 11-7c3-5 5-14 5-28s-2-23-5-28-7-7-11-7-8 2-11 6c-3 5-5 15-5 29zm47 41m41-1h-10v-67c-2 2-5 5-9 7-4 3-7 4-10 6v-10c6-3 10-6 14-10s7-8 9-12h6v86zm20-1m5-42c0-10 1-18 3-25 2-6 5-11 9-14s9-5 14-6c4 0 8 1 11 2 3 2 6 4 8 8s4 8 5 13 2 12 2 20c0 10-1 18-3 24s-5 11-9 14c-4 4-9 5-14 5-8 0-14-2-18-8-5-7-8-18-8-34zm10 0c0 14 2 23 5 28 3 4 7 7 11 7s8-3 11-7c3-5 5-14 5-28s-2-23-5-28-7-7-11-7-8 2-11 6c-3 5-5 15-5 29zm47 40m5-42c0-10 1-18 3-24s5-11 9-15 9-5 14-6c4 0 8 0 11 2s6 4 8 8c2 3 3 8 5 13 1 5 2 12 2 20 0 10-1 18-3 24s-5 11-9 15-9 5-15 6c-8 0-14-2-18-8-5-7-8-18-8-34zm10-1c0 14 1 23 5 28 3 5 7 7 11 6 5 0 8-3 11-8s5-14 5-28-2-23-5-28c-3-4-7-7-11-6-5 0-8 2-11 7s-5 15-5 29z"/>
</svg>